<?xml version="1.0" encoding="UTF-8" standalone="no"?>
<svg
   xmlns:dc="http://purl.org/dc/elements/1.1/"
   xmlns:cc="http://creativecommons.org/ns#"
   xmlns:rdf="http://www.w3.org/1999/02/22-rdf-syntax-ns#"
   xmlns:svg="http://www.w3.org/2000/svg"
   xmlns="http://www.w3.org/2000/svg"
   xmlns:sodipodi="http://sodipodi.sourceforge.net/DTD/sodipodi-0.dtd"
   xmlns:inkscape="http://www.inkscape.org/namespaces/inkscape"
   version="1.1"
   id="Layer_1"
   x="0px"
   y="0px"
   width="100%"
   viewBox="0 0 2560 2560"
   enable-background="new 0 0 2560 2560"
   xml:space="preserve"
   sodipodi:docname="wave-blue-on-trans.svg"
   inkscape:version="0.92.4 (5da689c313, 2019-01-14)"
   inkscape:export-filename="/home/konstant/projects/siglyx/logo/wave-blue-on-trans.png"
   inkscape:export-xdpi="150"
   inkscape:export-ydpi="150"><metadata
   id="metadata77"><rdf:RDF><cc:Work
       rdf:about=""><dc:format>image/svg+xml</dc:format><dc:type
         rdf:resource="http://purl.org/dc/dcmitype/StillImage" /><dc:title /></cc:Work></rdf:RDF></metadata><defs
   id="defs75" /><sodipodi:namedview
   pagecolor="#ffffff"
   bordercolor="#666666"
   borderopacity="1"
   objecttolerance="10"
   gridtolerance="10"
   guidetolerance="10"
   inkscape:pageopacity="0"
   inkscape:pageshadow="2"
   inkscape:window-width="1812"
   inkscape:window-height="1108"
   id="namedview73"
   showgrid="false"
   inkscape:zoom="0.9"
   inkscape:cx="1188.8384"
   inkscape:cy="1446.3926"
   inkscape:window-x="82"
   inkscape:window-y="0"
   inkscape:window-maximized="0"
   inkscape:current-layer="Layer_1" />

<path
   fill="#E5E1DD"
   opacity="1.000000"
   stroke="none"
   d=" M1041.080200,790.089172   C1034.834106,777.630005 1029.100952,764.877319 1022.188110,752.799744   C1016.096802,742.157593 1007.390625,733.960205 994.132446,731.718384   C994.132446,725.922791 994.132446,720.373596 994.132446,714.196106   C1003.981506,713.689636 1012.162964,717.563171 1019.674927,723.158691   C1032.315186,732.574036 1040.514893,745.539246 1047.337158,759.351685   C1062.312134,789.670898 1071.836548,821.927246 1080.092529,854.568237   C1086.297363,879.098938 1091.892944,903.784302 1098.173584,928.294739   C1099.356079,932.909668 1101.804077,937.599426 1104.866821,941.248474   C1110.844604,948.370667 1117.262817,955.239929 1124.211548,961.411011   C1161.388916,994.428223 1214.653198,993.810364 1251.375732,960.214355   C1274.566040,938.998352 1274.501465,938.983521 1281.744385,907.611877   C1289.982300,871.929565 1297.838379,836.136414 1309.738892,801.425293   C1316.657837,781.244263 1324.271362,761.353088 1336.096802,743.376282   C1341.647095,734.938721 1348.201416,727.493286 1356.517944,721.677917   C1371.700439,711.061401 1388.912109,711.065674 1404.124268,721.602844   C1417.151001,730.626221 1425.453369,743.416565 1432.480713,757.170288   C1445.736328,783.113342 1454.578125,810.701233 1461.839478,838.777527   C1469.508179,868.428894 1476.368408,898.288940 1483.925171,927.970398   C1485.104004,932.600037 1487.615601,937.113403 1490.398804,941.053223   C1493.643311,945.646057 1497.756958,949.652039 1501.679077,953.734375   C1518.883789,971.642090 1539.286865,983.258972 1564.466553,985.392883   C1567.096069,985.615662 1569.708496,986.039734 1572.830933,986.433777   C1572.830933,991.882690 1572.830933,997.055786 1572.830933,1003.289612   C1551.411743,1004.262268 1532.192017,998.365540 1513.066650,986.745605   C1507.984985,985.444885 1509.469604,987.363708 1510.476440,989.058594   C1516.995605,1003.163208 1526.393677,1015.209167 1537.638428,1025.744995   C1545.044189,1032.683716 1553.939575,1037.231323 1564.086182,1039.008911   C1566.988159,1039.517334 1569.873657,1040.120361 1572.896851,1040.705200   C1572.896851,1046.294922 1572.896851,1051.523804 1572.896851,1057.285400   C1562.600464,1058.529053 1553.258911,1056.311401 1544.689453,1051.993530   C1536.600220,1047.917603 1529.176392,1042.520752 1521.149048,1037.510986   C1523.571655,1061.020508 1549.097412,1089.442017 1572.835693,1094.935547   C1573.006958,1097.586792 1573.257690,1100.468872 1573.359985,1103.356201   C1573.451538,1105.936646 1573.379272,1108.522949 1573.379272,1111.788452   C1554.860474,1113.258911 1542.401978,1102.478394 1529.232788,1091.768066   C1529.316895,1100.912842 1534.397583,1112.289307 1544.238892,1127.227783   C1551.169189,1137.747070 1559.050171,1147.012329 1572.863525,1149.049561   C1572.863525,1154.655273 1572.863525,1159.874390 1572.863525,1165.550659   C1564.796387,1167.751831 1557.951904,1164.267822 1551.445312,1160.378418   C1541.520508,1154.445435 1534.210449,1145.840698 1528.097534,1136.118408   C1516.665771,1117.936768 1507.938965,1098.392822 1502.134888,1077.883911   C1490.806763,1037.856201 1480.421875,997.553589 1470.248779,957.212891   C1468.045166,948.474304 1464.868774,940.954163 1458.296265,934.867065   C1450.491821,927.639038 1443.321289,919.576782 1434.855225,913.239746   C1401.694214,888.418030 1356.039673,889.057556 1323.242065,914.219543   C1320.072754,916.651001 1316.949219,919.165405 1313.997070,921.853149   C1292.397339,941.518860 1292.533813,941.808411 1285.996826,970.358459   C1276.485107,1011.900757 1267.200073,1053.528076 1252.102295,1093.535767   C1246.097290,1109.448730 1239.771240,1125.321411 1229.545288,1139.044922   C1224.235352,1146.171143 1218.105835,1153.080078 1211.101685,1158.469116   C1195.951904,1170.125488 1176.278442,1169.308716 1160.993896,1157.813599   C1148.648193,1148.528564 1140.618042,1135.958252 1133.895508,1122.438843   C1118.225220,1090.924316 1108.768799,1057.250732 1100.158203,1023.339233   C1094.258667,1000.104797 1088.931396,976.723206 1083.531982,953.364929   C1082.224365,947.708374 1080.181396,942.726990 1075.927124,938.584656   C1069.489136,932.315979 1063.608276,925.457214 1056.992920,919.392273   C1041.786133,905.451050 1023.896240,897.252686 1003.182007,895.585449   C1000.268250,895.350952 997.365356,894.981995 994.069397,894.634460   C994.069397,888.959167 994.069397,883.726562 994.069397,877.659363   C1015.010986,876.338806 1033.946167,882.109985 1052.990234,893.321289   C1055.121460,894.053589 1055.988037,894.061951 1056.854736,894.070374   C1056.552979,893.057617 1056.251221,892.044861 1055.949463,891.032104   C1048.867920,876.102051 1039.259888,863.130066 1026.448608,852.575256   C1017.131165,844.898865 1006.124756,841.640564 994.054688,840.353333   C994.054688,834.690796 994.054688,829.465942 994.054688,823.398193   C1014.888245,821.849121 1030.766113,832.194397 1046.218384,845.232239   C1045.636841,836.092468 1038.349365,820.840881 1027.846191,807.262939   C1020.606689,797.903931 1015.113098,790.414734 993.624756,785.462830   C993.624756,782.739990 993.564819,779.803711 993.642700,776.871155   C993.712646,774.235840 993.934021,771.604553 994.129272,768.280029   C1011.865723,769.099670 1025.663086,776.512146 1037.207153,790.806396   C1039.353516,793.361694 1040.843994,794.918701 1042.334473,796.475708   C1042.759155,796.208130 1043.183838,795.940552 1043.608521,795.672974   C1042.765747,793.811707 1041.922974,791.950439 1041.080200,790.089172  M1332.756714,788.996826   C1332.500732,790.667480 1332.244751,792.338135 1331.988770,794.008728   C1332.499512,794.264709 1333.010254,794.520630 1333.520996,794.776611   C1335.114380,792.697388 1336.707764,790.618103 1339.283813,787.609741   C1360.891113,763.843628 1394.895630,759.431396 1422.149170,788.744263   C1423.697021,790.409119 1424.645264,792.631409 1425.872681,794.594238   C1427.563599,792.150879 1427.832275,791.093506 1427.523560,790.246460   C1422.045532,775.212097 1415.387451,760.746399 1405.549927,748.018188   C1402.541138,744.125244 1398.948975,740.498962 1395.034546,737.527100   C1385.711060,730.448914 1375.807739,729.825012 1366.457520,736.811462   C1360.475830,741.280884 1354.748291,746.955139 1350.967773,753.314453   C1344.388306,764.382202 1339.402222,776.397034 1332.756714,788.996826  M1123.678589,985.066467   C1123.395996,985.796875 1123.113281,986.527222 1123.216919,988.576294   C1129.910645,1001.312195 1137.984985,1013.080322 1148.152832,1023.296814   C1169.216553,1044.461060 1199.688110,1045.984863 1221.734131,1025.927979   C1230.218018,1018.209534 1236.744629,1008.278381 1243.789307,999.069397   C1246.642212,995.339905 1248.496582,990.846680 1250.805420,986.700989   C1247.162109,986.750366 1244.963745,987.978394 1242.699341,989.069824   C1236.716553,991.953613 1230.944092,995.547302 1224.665283,997.497681   C1191.712769,1007.733459 1159.734985,1006.191162 1129.372925,988.403625   C1127.691772,987.418701 1125.810425,986.775085 1123.678589,985.066467  M1416.010132,854.900513   C1392.862549,833.937134 1359.608398,836.933838 1340.258423,859.605225   C1332.520752,868.671082 1325.947876,878.742310 1319.031128,888.488098   C1317.665405,890.412415 1317.152710,892.942139 1315.335083,897.456543   C1336.271729,882.803345 1357.457642,877.155640 1380.342773,877.092896   C1403.081787,877.030518 1424.090576,882.928162 1443.743530,894.982666   C1437.906982,879.547852 1428.531494,866.992737 1416.010132,854.900513  M1241.124512,1033.676636   C1238.848389,1035.583740 1236.542114,1037.456299 1234.300415,1039.403076   C1205.749878,1064.197876 1167.265015,1064.240845 1138.936279,1039.507568   C1136.954346,1037.777100 1134.913818,1036.113525 1132.781982,1034.319214   C1132.514160,1035.291748 1132.033936,1036.028564 1132.219849,1036.505981   C1138.783325,1053.353760 1147.000732,1069.322510 1159.977661,1082.150879   C1176.386597,1098.371704 1196.387451,1098.206909 1213.137329,1082.250854   C1215.772217,1079.740845 1218.180298,1076.939819 1220.381714,1074.036987   C1229.474609,1062.046753 1236.593506,1048.960571 1241.124512,1033.676636  M1402.218872,794.537781   C1382.982422,779.911133 1364.484741,787.515442 1352.950562,799.478210   C1340.711914,812.171570 1332.849609,827.452637 1326.125854,843.457520   C1325.873901,844.057434 1326.440186,845.001038 1326.832397,846.662109   C1342.517700,831.600952 1360.045410,822.449585 1381.653442,822.792358   C1402.837769,823.128479 1420.089966,832.221130 1435.252930,846.633606   C1427.658936,827.394958 1419.283936,809.049744 1402.218872,794.537781  M1157.660522,1103.600586   C1152.025513,1098.816772 1146.390625,1094.032959 1140.755615,1089.249146   C1146.601318,1108.744019 1154.210571,1127.065063 1169.028809,1141.100586   C1179.818604,1151.320435 1193.888428,1151.320190 1204.927734,1140.991089   C1220.136963,1126.760376 1227.379517,1107.901367 1233.849854,1088.279297   C1212.289551,1111.072144 1188.340942,1120.622559 1157.660522,1103.600586  M1520.000000,1037.000000   C1520.400024,1037.266724 1520.799927,1037.533325 1521.199951,1037.800049   C1521.133301,1037.200073 1521.066650,1036.599976 1520.000000,1037.000000  M1138.631714,1087.113770   C1138.631714,1087.113770 1139.216431,1087.464966 1139.216431,1087.464966   C1139.216431,1087.464966 1139.141235,1086.744751 1138.631714,1087.113770  M1529.000000,1094.000000   C1529.266724,1093.600098 1529.533447,1093.200073 1529.800049,1092.800049   C1529.200073,1092.866699 1528.599976,1092.933350 1529.000000,1094.000000  M1330.823730,796.792236   C1330.823730,796.792236 1331.056885,796.609192 1330.823730,796.792236  z"
   id="path4"
   style="fill:#162950;fill-opacity:1" />







<path
   fill="#DDD9D7"
   opacity="1.000000"
   stroke="none"
   d=" M1038.206299,949.649109   C1035.135010,949.454163 1032.891602,949.259644 1030.284546,949.033569   C1030.284546,943.362732 1030.284546,938.119019 1030.284546,932.086182   C1035.767944,932.086182 1041.214600,932.086182 1047.414307,932.086182   C1047.414307,937.259521 1047.414307,942.726013 1047.414307,949.010803   C1044.671997,949.219849 1041.853149,949.434631 1038.206299,949.649109  z"
   id="path20"
   style="fill:#162950;fill-opacity:1" />
<path
   fill="#DDD9D7"
   opacity="1.000000"
   stroke="none"
   d=" M1392.224243,938.626953   C1392.225708,942.390442 1392.225708,945.351624 1392.225708,948.980530   C1386.015991,948.980530 1380.568726,948.980530 1374.523804,948.980530   C1374.523804,943.474976 1374.523804,937.987244 1374.523804,931.893738   C1380.213989,931.893738 1385.674561,931.893738 1391.678467,931.893738   C1391.869873,933.979309 1392.046265,935.901917 1392.224243,938.626953  z"
   id="path22"
   style="fill:#162950;fill-opacity:1" />
<path
   fill="#DDD9D7"
   opacity="1.000000"
   stroke="none"
   d=" M1337.836670,944.962830   C1337.808350,940.218445 1337.808350,936.290466 1337.808350,931.836243   C1344.062744,931.836243 1349.515137,931.836243 1355.514404,931.836243   C1355.514404,937.763062 1355.514404,943.272827 1355.514404,949.565430   C1350.540039,949.565430 1345.914551,949.834229 1341.358276,949.391724   C1340.088867,949.268555 1339.023804,947.041321 1337.836670,944.962830  z"
   id="path24"
   style="fill:#162950;fill-opacity:1" />
<path
   fill="#DDD9D7"
   opacity="1.000000"
   stroke="none"
   d=" M1570.939209,949.332092   C1565.520996,949.550964 1560.944092,949.550964 1555.714844,949.550964   C1555.714844,943.520630 1555.714844,938.088379 1555.714844,931.973755   C1561.365479,931.973755 1566.795288,931.973755 1572.937012,931.973755   C1573.190796,937.899597 1575.091797,943.577637 1570.939209,949.332092  z"
   id="path26"
   style="fill:#162950;fill-opacity:1" />
<path
   fill="#DDD9D7"
   opacity="1.000000"
   stroke="none"
   d=" M1156.675049,936.947021   C1156.683472,941.329651 1156.683472,944.902466 1156.683472,949.050232   C1150.399658,949.050232 1145.024658,949.050232 1139.014160,949.050232   C1139.014160,943.249084 1139.014160,937.842651 1139.014160,931.377991   C1143.778076,931.377991 1148.367188,930.994629 1152.823242,931.596497   C1154.282227,931.793579 1155.395386,934.550842 1156.675049,936.947021  z"
   id="path28"
   style="fill:#162950;fill-opacity:1" />
<path
   fill="#DDD9D7"
   opacity="1.000000"
   stroke="none"
   d=" M1187.160767,931.310181   C1189.619385,932.504639 1192.491943,933.525024 1192.680176,934.910156   C1193.287354,939.379761 1192.906494,943.983643 1192.906494,949.079651   C1186.562500,949.079651 1181.168335,949.079651 1175.176270,949.079651   C1175.176270,943.410400 1175.176270,938.248901 1175.176270,931.814880   C1178.780029,931.649719 1182.562866,931.476440 1187.160767,931.310181  z"
   id="path30"
   style="fill:#162950;fill-opacity:1" />
<path
   fill="#DDD9D7"
   opacity="1.000000"
   stroke="none"
   d=" M1424.482422,931.374390   C1431.392822,936.474182 1427.363770,942.814514 1427.936401,949.107422   C1422.030518,949.107422 1416.621338,949.107422 1410.654053,949.107422   C1410.654053,943.152222 1410.654053,937.732361 1410.654053,931.323608   C1415.251709,931.323608 1419.480469,931.323608 1424.482422,931.374390  z"
   id="path32"
   style="fill:#162950;fill-opacity:1" />
<path
   fill="#DDD9D7"
   opacity="1.000000"
   stroke="none"
   d=" M1002.292358,949.649292   C999.149719,949.512756 996.874146,949.376221 994.099487,949.209717   C994.099487,943.345398 994.099487,937.814941 994.099487,931.789307   C999.919556,931.789307 1005.419739,931.789307 1011.455688,931.789307   C1011.455688,937.415344 1011.455688,942.618164 1011.455688,948.943054   C1008.785583,949.170349 1005.972412,949.409851 1002.292358,949.649292  z"
   id="path34"
   style="fill:#162950;fill-opacity:1" />
<path
   fill="#E5E1DD"
   opacity="1.000000"
   stroke="none"
   d=" M1537.083984,938.185669   C1536.941040,942.294983 1536.791626,945.531616 1536.625000,949.145142   C1530.632568,949.145142 1525.441040,949.145142 1519.515991,949.145142   C1519.515991,943.426636 1519.515991,937.980042 1519.515991,931.400452   C1523.993652,931.400452 1528.218628,931.474121 1532.439819,931.379944   C1536.741089,931.283997 1537.170410,934.057068 1537.083984,938.185669  z"
   id="path36"
   style="fill:#162950;fill-opacity:1" />
<path
   fill="#E5E1DD"
   opacity="1.000000"
   stroke="none"
   d=" M1223.434204,931.388062   C1226.883789,931.425354 1229.092773,931.961060 1229.148926,935.060486   C1229.230713,939.572571 1229.169800,944.087219 1229.169800,949.079590   C1222.811279,949.079590 1217.640625,949.079590 1211.721191,949.079590   C1211.721191,943.429138 1211.721191,938.028442 1211.721191,931.377441   C1215.446533,931.377441 1218.970581,931.377441 1223.434204,931.388062  z"
   id="path38"
   style="fill:#162950;fill-opacity:1" />









<path
   fill="#1C2E53"
   opacity="1.000000"
   stroke="none"
   d=" M1138.886475,1086.929199   C1139.141235,1086.744751 1139.216431,1087.464966 1139.216431,1087.464966   C1139.216431,1087.464966 1138.631714,1087.113770 1138.886475,1086.929199  z"
   id="path58" />


<path
   fill="#1C2E53"
   opacity="1.000000"
   stroke="none"
   d=" M1123.142822,986.949463   C1123.113281,986.527222 1123.395996,985.796875 1123.850464,985.519531   C1124.022339,985.972595 1123.454834,986.641357 1123.142822,986.949463  z"
   id="path64" />



</svg>