<?xml version="1.0" encoding="UTF-8" standalone="no"?>
<svg
   xmlns:dc="http://purl.org/dc/elements/1.1/"
   xmlns:cc="http://creativecommons.org/ns#"
   xmlns:rdf="http://www.w3.org/1999/02/22-rdf-syntax-ns#"
   xmlns:svg="http://www.w3.org/2000/svg"
   xmlns="http://www.w3.org/2000/svg"
   xmlns:sodipodi="http://sodipodi.sourceforge.net/DTD/sodipodi-0.dtd"
   xmlns:inkscape="http://www.inkscape.org/namespaces/inkscape"
   version="1.1"
   id="Layer_1"
   x="0px"
   y="0px"
   width="40.947144"
   viewBox="0 0 40.947143 32.000263"
   enable-background="new 0 0 2560 2560"
   xml:space="preserve"
   sodipodi:docname="favicon.svg"
   inkscape:version="0.92.4 (5da689c313, 2019-01-14)"
   height="32.000263"><metadata
   id="metadata77"><rdf:RDF><cc:Work
       rdf:about=""><dc:format>image/svg+xml</dc:format><dc:type
         rdf:resource="http://purl.org/dc/dcmitype/StillImage" /><dc:title></dc:title></cc:Work></rdf:RDF></metadata><defs
   id="defs75" /><sodipodi:namedview
   pagecolor="#ffffff"
   bordercolor="#666666"
   borderopacity="1"
   objecttolerance="10"
   gridtolerance="10"
   guidetolerance="10"
   inkscape:pageopacity="0"
   inkscape:pageshadow="2"
   inkscape:window-width="1390"
   inkscape:window-height="864"
   id="namedview73"
   showgrid="false"
   inkscape:zoom="11.569617"
   inkscape:cx="22.426127"
   inkscape:cy="15.787792"
   inkscape:window-x="82"
   inkscape:window-y="0"
   inkscape:window-maximized="0"
   inkscape:current-layer="layer2"
   showguides="false"
   fit-margin-top="0"
   fit-margin-left="0"
   fit-margin-right="0"
   fit-margin-bottom="0"
   inkscape:showpageshadow="false"
   showborder="false" />




























<path
   d="m -124.23076,162.65934 c 0.2547,-0.1844 0.3299,0.5358 0.3299,0.5358 0,0 -0.5847,-0.3512 -0.3299,-0.5358 z"
   id="path58"
   inkscape:connector-curvature="0"
   style="opacity:1;fill:#1c2e53;stroke:none" />


<path
   d="m -139.97446,62.679587 c -0.03,-0.42224 0.2532,-1.15259 0.7077,-1.42993 0.1718,0.45306 -0.3957,1.12183 -0.7077,1.42993 z"
   id="path64"
   inkscape:connector-curvature="0"
   style="opacity:1;fill:#1c2e53;stroke:none" />



<g
   inkscape:groupmode="layer"
   id="layer1"
   inkscape:label="bg"
   transform="translate(-1263.1172,-924.26986)"><rect
     style="opacity:1;fill:#162950;fill-opacity:1;stroke:none;stroke-width:0.29112959;stroke-miterlimit:4;stroke-dasharray:none;stroke-opacity:1"
     id="rect884"
     width="43.621536"
     height="32.86433"
     x="1261.905"
     y="923.82336" /></g><g
   inkscape:groupmode="layer"
   id="layer2"
   inkscape:label="fg"
   transform="translate(-1263.1172,-924.26986)"><path
     style="opacity:1;fill:#e5e1dd;stroke:none;stroke-width:0.07062081"
     d="m 1266.4699,929.66395 c -0.4411,-0.87988 -0.846,-1.78048 -1.3342,-2.63341 -0.4302,-0.75156 -1.045,-1.33047 -1.9813,-1.48879 0,-0.40928 0,-0.80117 0,-1.23743 0.6955,-0.0358 1.2733,0.23778 1.8038,0.63294 0.8927,0.66492 1.4717,1.58054 1.9535,2.55598 1.0576,2.14117 1.7302,4.41914 2.3132,6.72427 0.4382,1.73238 0.8334,3.47568 1.277,5.20663 0.083,0.32591 0.2563,0.6571 0.4726,0.9148 0.4222,0.50298 0.8754,0.98809 1.3662,1.42389 2.6255,2.33171 6.387,2.28807 8.9804,-0.0845 1.6377,-1.4983 1.6332,-1.49934 2.1447,-3.71483 0.5817,-2.51992 1.1365,-5.04766 1.977,-7.49899 0.4886,-1.4252 1.0263,-2.82993 1.8614,-4.09946 0.3919,-0.59587 0.8548,-1.12167 1.4421,-1.53236 1.0722,-0.74975 2.2877,-0.74945 3.362,-0.005 0.92,0.63723 1.5063,1.5405 2.0026,2.5118 0.9361,1.83212 1.5605,3.7804 2.0733,5.76317 0.5416,2.094 1.0261,4.20274 1.5597,6.29887 0.083,0.32695 0.2607,0.64569 0.4572,0.92392 0.2291,0.32435 0.5197,0.60726 0.7966,0.89555 1.215,1.26466 2.6559,2.08505 4.4341,2.23575 0.1857,0.0157 0.3702,0.0457 0.5907,0.0735 0,0.38481 0,0.75014 0,1.19037 -1.5126,0.0687 -2.8699,-0.34774 -4.2206,-1.16835 -0.3588,-0.0919 -0.254,0.0437 -0.1829,0.16335 0.4604,0.99608 1.1241,1.84678 1.9182,2.59082 0.523,0.49002 1.1512,0.81118 1.8678,0.93671 0.2049,0.0359 0.4087,0.0785 0.6222,0.11979 0,0.39475 0,0.76402 0,1.17091 -0.7271,0.0878 -1.3869,-0.0688 -1.992,-0.37372 -0.5713,-0.28784 -1.0956,-0.66897 -1.6625,-1.02276 0.1711,1.66026 1.9738,3.66741 3.6502,4.05536 0.012,0.18724 0.03,0.39078 0.037,0.59468 0.01,0.18223 0,0.36488 0,0.5955 -1.3078,0.10384 -2.1876,-0.65749 -3.1176,-1.41386 0.01,0.6458 0.3647,1.44922 1.0597,2.50419 0.4894,0.74288 1.046,1.3972 2.0215,1.54107 0,0.39588 0,0.76446 0,1.16533 -0.5697,0.15544 -1.0531,-0.0906 -1.5126,-0.36528 -0.7009,-0.41899 -1.2171,-1.02666 -1.6488,-1.71326 -0.8073,-1.284 -1.4236,-2.66421 -1.8335,-4.11257 -0.8,-2.82678 -1.5334,-5.67299 -2.2518,-8.52188 -0.1556,-0.61713 -0.38,-1.14821 -0.8441,-1.57808 -0.5512,-0.51045 -1.0576,-1.07981 -1.6554,-1.52734 -2.3419,-1.75293 -5.5661,-1.70777 -7.8823,0.0692 -0.2238,0.17172 -0.4444,0.34928 -0.6528,0.5391 -1.5254,1.3888 -1.5158,1.40925 -1.9774,3.42548 -0.6718,2.93375 -1.3275,5.87351 -2.3937,8.69888 -0.4241,1.12379 -0.8708,2.24473 -1.593,3.21389 -0.375,0.50326 -0.8079,0.99118 -1.3025,1.37176 -1.0699,0.82318 -2.4592,0.7655 -3.5386,-0.0463 -0.8719,-0.65572 -1.439,-1.54344 -1.9138,-2.4982 -1.1066,-2.22558 -1.7744,-4.60364 -2.3825,-6.9985 -0.4166,-1.64083 -0.7929,-3.29206 -1.1742,-4.94164 -0.092,-0.39947 -0.2366,-0.75126 -0.537,-1.04379 -0.4547,-0.4427 -0.87,-0.92707 -1.3372,-1.35538 -1.0739,-0.98454 -2.3373,-1.56352 -3.8002,-1.68126 -0.2057,-0.0166 -0.4107,-0.0426 -0.6435,-0.0672 0,-0.40079 0,-0.77033 0,-1.1988 1.4789,-0.0933 2.8161,0.31431 4.161,1.10606 0.1506,0.0517 0.2117,0.0523 0.273,0.0529 -0.021,-0.0715 -0.043,-0.14304 -0.064,-0.21456 -0.5001,-1.05437 -1.1786,-1.97047 -2.0833,-2.71586 -0.6581,-0.54211 -1.4353,-0.77221 -2.2877,-0.86312 0,-0.39989 0,-0.76887 0,-1.19738 1.4712,-0.1094 2.5926,0.62119 3.6838,1.54193 -0.041,-0.64545 -0.5557,-1.72253 -1.2974,-2.68142 -0.5113,-0.66094 -0.8993,-1.18983 -2.4168,-1.53954 0,-0.19229 0,-0.39965 0,-0.60675 0,-0.18611 0.021,-0.37193 0.034,-0.60671 1.2526,0.0579 2.227,0.58136 3.0422,1.59083 0.1516,0.18045 0.2569,0.29041 0.3621,0.40037 0.03,-0.0189 0.06,-0.0378 0.09,-0.0567 -0.06,-0.13145 -0.119,-0.26289 -0.1786,-0.39433 m 20.5985,-0.0771 c -0.018,0.11799 -0.036,0.23597 -0.054,0.35395 0.036,0.0181 0.072,0.0362 0.1083,0.0542 0.1125,-0.14684 0.225,-0.29368 0.4069,-0.50613 1.526,-1.67839 3.9274,-1.98998 5.852,0.0801 0.1094,0.11757 0.1763,0.27451 0.263,0.41313 0.1194,-0.17255 0.1384,-0.24723 0.1166,-0.30705 -0.3869,-1.06173 -0.8571,-2.08331 -1.5518,-2.98219 -0.2125,-0.27492 -0.4662,-0.53102 -0.7426,-0.74089 -0.6584,-0.49987 -1.3578,-0.54393 -2.0181,-0.0505 -0.4225,0.31563 -0.827,0.71636 -1.0939,1.16546 -0.4647,0.78161 -0.8168,1.63011 -1.2861,2.51991 m -14.7653,13.8466 c -0.02,0.0516 -0.04,0.10316 -0.033,0.24787 0.4727,0.89942 1.0429,1.73049 1.761,2.45199 1.4875,1.49464 3.6395,1.60225 5.1964,0.18582 0.5991,-0.54509 1.06,-1.24643 1.5575,-1.89678 0.2015,-0.26338 0.3325,-0.5807 0.4955,-0.87347 -0.2573,0.003 -0.4125,0.0902 -0.5724,0.16729 -0.4226,0.20366 -0.8302,0.45745 -1.2736,0.59518 -2.3272,0.72287 -4.5855,0.61395 -6.7297,-0.64223 -0.1187,-0.0696 -0.2515,-0.11501 -0.4021,-0.23567 m 20.6447,-9.19242 c -1.6347,-1.48046 -3.9831,-1.26883 -5.3496,0.33225 -0.5465,0.64023 -1.0107,1.35147 -1.4991,2.03973 -0.096,0.13589 -0.1327,0.31455 -0.261,0.63336 1.4785,-1.03482 2.9747,-1.43367 4.5908,-1.4381 1.6059,-0.004 3.0896,0.41209 4.4775,1.26339 -0.4122,-1.09002 -1.0743,-1.97667 -1.9586,-2.83063 m -12.3506,12.62531 c -0.1607,0.13468 -0.3236,0.26692 -0.4819,0.40441 -2.0162,1.75103 -4.7341,1.75406 -6.7347,0.007 -0.1399,-0.12221 -0.284,-0.23969 -0.4346,-0.36641 -0.019,0.0687 -0.053,0.12072 -0.04,0.15443 0.4635,1.18981 1.0438,2.31753 1.9603,3.22348 1.1588,1.14553 2.5713,1.13389 3.7542,0.007 0.186,-0.17727 0.3561,-0.37508 0.5116,-0.58008 0.6421,-0.84675 1.1449,-1.77091 1.4648,-2.85028 m 11.3767,-16.88818 c -1.3585,-1.03295 -2.6649,-0.49592 -3.4794,0.3489 -0.8643,0.89641 -1.4196,1.97557 -1.8944,3.10585 -0.018,0.0424 0.022,0.10901 0.05,0.22631 1.1077,-1.06363 2.3455,-1.70991 3.8715,-1.6857 1.4961,0.0237 2.7144,0.66587 3.7852,1.68369 -0.5363,-1.35865 -1.1277,-2.6542 -2.3328,-3.67905 m -17.271,21.82627 c -0.3979,-0.33784 -0.7958,-0.67567 -1.1938,-1.01352 0.4128,1.37675 0.9502,2.6706 1.9967,3.6618 0.762,0.72173 1.7556,0.72172 2.5352,-0.008 1.0741,-1.00499 1.5856,-2.33682 2.0425,-3.72255 -1.5226,1.60964 -3.2139,2.28411 -5.3806,1.082 m 25.5888,-4.70339 c 0.028,0.0188 0.056,0.0377 0.085,0.0565 0,-0.0424 -0.01,-0.0848 -0.085,-0.0565 m -26.9326,3.53908 c 0,0 0.041,0.0248 0.041,0.0248 0,0 -0.01,-0.0509 -0.041,-0.0248 m 27.5682,0.48631 c 0.019,-0.0282 0.038,-0.0565 0.056,-0.0847 -0.042,0.005 -0.085,0.009 -0.056,0.0847 m -13.9954,-20.98906 c 0,0 0.016,-0.0129 0,0 z"
     id="path4"
     inkscape:connector-curvature="0" /><path
     style="opacity:1;fill:#ddd9d7;stroke:none;stroke-width:0.07062081"
     d="m 1266.2669,940.9322 c -0.2169,-0.0138 -0.3753,-0.0275 -0.5594,-0.0435 0,-0.40048 0,-0.77079 0,-1.19684 0.3872,0 0.7719,0 1.2097,0 0,0.36535 0,0.75139 0,1.19523 -0.1937,0.0148 -0.3927,0.0299 -0.6503,0.0451 z"
     id="path20"
     inkscape:connector-curvature="0" /><path
     style="opacity:1;fill:#ddd9d7;stroke:none;stroke-width:0.07062081"
     d="m 1291.2679,940.15381 c 0,0.26578 0,0.4749 0,0.73117 -0.4385,0 -0.8232,0 -1.2501,0 0,-0.3888 0,-0.77635 0,-1.20668 0.4019,0 0.7875,0 1.2115,0 0.014,0.14729 0.026,0.28306 0.039,0.47551 z"
     id="path22"
     inkscape:connector-curvature="0" /><path
     style="opacity:1;fill:#ddd9d7;stroke:none;stroke-width:0.07062081"
     d="m 1287.4271,940.60125 c 0,-0.33505 0,-0.61245 0,-0.92701 0.4417,0 0.8267,0 1.2504,0 0,0.41856 0,0.80766 0,1.25205 -0.3513,0 -0.678,0.019 -0.9997,-0.0123 -0.09,-0.009 -0.1649,-0.16598 -0.2487,-0.31277 z"
     id="path24"
     inkscape:connector-curvature="0" /><path
     style="opacity:1;fill:#ddd9d7;stroke:none;stroke-width:0.07062081"
     d="m 1303.8889,940.90981 c -0.3826,0.0155 -0.7058,0.0155 -1.0751,0.0155 0,-0.42587 0,-0.8095 0,-1.24132 0.399,0 0.7825,0 1.2162,0 0.018,0.41849 0.1522,0.81948 -0.1411,1.22586 z"
     id="path26"
     inkscape:connector-curvature="0" /><path
     style="opacity:1;fill:#ddd9d7;stroke:none;stroke-width:0.07062081"
     d="m 1274.6333,940.03517 c 7e-4,0.3095 7e-4,0.56182 7e-4,0.85474 -0.4438,0 -0.8234,0 -1.2478,0 0,-0.40969 0,-0.79149 0,-1.24803 0.3364,0 0.6605,-0.0271 0.9752,0.0154 0.103,0.0139 0.1816,0.20864 0.272,0.37786 z"
     id="path28"
     inkscape:connector-curvature="0" /><path
     style="opacity:1;fill:#ddd9d7;stroke:none;stroke-width:0.07062081"
     d="m 1276.7862,939.63709 c 0.1736,0.0844 0.3765,0.15641 0.3898,0.25423 0.043,0.31565 0.016,0.64078 0.016,1.00066 -0.4481,0 -0.829,0 -1.2522,0 0,-0.40036 0,-0.76487 0,-1.21925 0.2545,-0.0117 0.5217,-0.0239 0.8464,-0.0356 z"
     id="path30"
     inkscape:connector-curvature="0" /><path
     style="opacity:1;fill:#ddd9d7;stroke:none;stroke-width:0.07062081"
     d="m 1293.546,939.64162 c 0.4881,0.36016 0.2035,0.80791 0.244,1.25233 -0.4171,0 -0.7991,0 -1.2205,0 0,-0.42057 0,-0.80332 0,-1.25591 0.3247,0 0.6233,0 0.9765,0.004 z"
     id="path32"
     inkscape:connector-curvature="0" /><path
     style="opacity:1;fill:#ddd9d7;stroke:none;stroke-width:0.07062081"
     d="m 1263.7306,940.93221 c -0.2219,-0.01 -0.3826,-0.0193 -0.5785,-0.031 0,-0.41414 0,-0.80471 0,-1.23024 0.411,0 0.7994,0 1.2257,0 0,0.39731 0,0.76474 0,1.21141 -0.1886,0.016 -0.3873,0.033 -0.6472,0.0499 z"
     id="path34"
     inkscape:connector-curvature="0" /><path
     style="opacity:1;fill:#e5e1dd;stroke:none;stroke-width:0.07062081"
     d="m 1301.4981,940.12264 c -0.01,0.29021 -0.021,0.51878 -0.033,0.77397 -0.4231,0 -0.7898,0 -1.2082,0 0,-0.40385 0,-0.78849 0,-1.25315 0.3162,0 0.6146,0.005 0.9127,-10e-4 0.3037,-0.007 0.3341,0.18906 0.328,0.48062 z"
     id="path36"
     inkscape:connector-curvature="0" /><path
     style="opacity:1;fill:#e5e1dd;stroke:none;stroke-width:0.07062081"
     d="m 1279.3479,939.64259 c 0.2436,0.003 0.3996,0.0405 0.4035,0.25935 0.01,0.31865 0,0.63747 0,0.99004 -0.449,0 -0.8142,0 -1.2322,0 0,-0.39904 0,-0.78044 0,-1.25014 0.2631,0 0.5119,0 0.8272,7.5e-4 z"
     id="path38"
     inkscape:connector-curvature="0" /></g></svg>