<?xml version="1.0" encoding="UTF-8" standalone="no"?>
<svg
   xmlns:dc="http://purl.org/dc/elements/1.1/"
   xmlns:cc="http://creativecommons.org/ns#"
   xmlns:rdf="http://www.w3.org/1999/02/22-rdf-syntax-ns#"
   xmlns:svg="http://www.w3.org/2000/svg"
   xmlns="http://www.w3.org/2000/svg"
   xmlns:sodipodi="http://sodipodi.sourceforge.net/DTD/sodipodi-0.dtd"
   xmlns:inkscape="http://www.inkscape.org/namespaces/inkscape"
   version="1.1"
   id="Layer_1"
   x="0px"
   y="0px"
   width="100%"
   viewBox="0 0 2560 2560"
   enable-background="new 0 0 2560 2560"
   xml:space="preserve"
   sodipodi:docname="favicon.svg"
   inkscape:version="0.92.4 (5da689c313, 2019-01-14)"
   inkscape:export-filename="favicon.png"
   inkscape:export-xdpi="14.928616"
   inkscape:export-ydpi="14.928616"><metadata
   id="metadata77"><rdf:RDF><cc:Work
       rdf:about=""><dc:format>image/svg+xml</dc:format><dc:type
         rdf:resource="http://purl.org/dc/dcmitype/StillImage" /><dc:title></dc:title></cc:Work></rdf:RDF></metadata><defs
   id="defs75" /><sodipodi:namedview
   pagecolor="#ffffff"
   bordercolor="#666666"
   borderopacity="1"
   objecttolerance="10"
   gridtolerance="10"
   guidetolerance="10"
   inkscape:pageopacity="0"
   inkscape:pageshadow="2"
   inkscape:window-width="1390"
   inkscape:window-height="864"
   id="namedview73"
   showgrid="false"
   inkscape:zoom="0.78"
   inkscape:cx="1260.1282"
   inkscape:cy="1593.1297"
   inkscape:window-x="82"
   inkscape:window-y="0"
   inkscape:window-maximized="0"
   inkscape:current-layer="layer1" />




























<path
   fill="#1C2E53"
   opacity="1.000000"
   stroke="none"
   d=" M1138.886475,1086.929199   C1139.141235,1086.744751 1139.216431,1087.464966 1139.216431,1087.464966   C1139.216431,1087.464966 1138.631714,1087.113770 1138.886475,1086.929199  z"
   id="path58" />


<path
   fill="#1C2E53"
   opacity="1.000000"
   stroke="none"
   d=" M1123.142822,986.949463   C1123.113281,986.527222 1123.395996,985.796875 1123.850464,985.519531   C1124.022339,985.972595 1123.454834,986.641357 1123.142822,986.949463  z"
   id="path64" />



<g
   inkscape:groupmode="layer"
   id="layer1"
   inkscape:label="bg"><rect
     style="opacity:1;fill:#162950;fill-opacity:1;stroke:none;stroke-width:0.47733623;stroke-miterlimit:4;stroke-dasharray:none;stroke-opacity:1"
     id="rect884"
     width="81.02565"
     height="47.564106"
     x="1242.8204"
     y="915.62817" /></g><g
   inkscape:groupmode="layer"
   id="layer2"
   inkscape:label="fg"
   style="display:inline"><path
     style="opacity:1;fill:#e5e1dd;stroke:none;stroke-width:0.1"
     d="m 1259.3449,925.25176 c -0.6246,-1.24592 -1.1979,-2.52118 -1.8892,-3.72894 -0.6091,-1.06422 -1.4797,-1.88396 -2.8055,-2.10814 0,-0.57956 0,-1.13448 0,-1.75222 0.9849,-0.0507 1.803,0.3367 2.5542,0.89625 1.264,0.94154 2.084,2.23806 2.7662,3.6193 1.4975,3.03192 2.45,6.25756 3.2756,9.52166 0.6205,2.45307 1.18,4.9216 1.8081,7.37265 0.1182,0.46149 0.363,0.93047 0.6693,1.29537 0.5978,0.71222 1.2396,1.39915 1.9345,2.01626 3.7177,3.30172 9.0441,3.23993 12.7164,-0.11967 2.319,-2.1216 2.3126,-2.12308 3.0369,-5.26025 0.8237,-3.56823 1.6094,-7.14754 2.7994,-10.61866 0.6919,-2.0181 1.4533,-4.00722 2.6358,-5.8049 0.555,-0.84375 1.2105,-1.5883 2.0421,-2.16983 1.5183,-1.06166 3.2394,-1.06123 4.7606,-0.008 1.3027,0.90233 2.133,2.18137 2.8357,3.55674 1.3255,2.59431 2.2097,5.3531 2.9359,8.16073 0.7668,2.96513 1.4529,5.95114 2.2085,8.91928 0.1179,0.46297 0.3691,0.9143 0.6474,1.30828 0.3244,0.45929 0.7358,0.85989 1.128,1.26812 1.7205,1.79077 3.7608,2.95246 6.2788,3.16585 0.2629,0.0223 0.5242,0.0647 0.8364,0.10409 0,0.54489 0,1.0622 0,1.68558 -2.1419,0.0973 -4.0639,-0.4924 -5.9764,-1.6544 -0.5082,-0.13007 -0.3597,0.0618 -0.259,0.2313 0.6519,1.41046 1.5917,2.61506 2.7162,3.66864 0.7405,0.69387 1.6301,1.14863 2.6447,1.32639 0.2902,0.0508 0.5788,0.11115 0.8811,0.16963 0,0.55897 0,1.08186 0,1.65802 -1.0296,0.12437 -1.9638,-0.0974 -2.8207,-0.52919 -0.809,-0.40759 -1.5513,-0.94727 -2.3541,-1.44825 0.2423,2.35095 2.7949,5.1931 5.1687,5.74245 0.017,0.26513 0.042,0.55334 0.052,0.84207 0.01,0.25804 0,0.51667 0,0.84323 -1.8519,0.14704 -3.0977,-0.93101 -4.4146,-2.00204 0.01,0.91447 0.5164,2.05212 1.5006,3.54597 0.693,1.05193 1.4811,1.97845 2.8624,2.18218 0,0.56057 0,1.08248 0,1.65011 -0.8067,0.22011 -1.4911,-0.12829 -2.1418,-0.51723 -0.9925,-0.5933 -1.7235,-1.45377 -2.3348,-2.426 -1.1431,-1.81816 -2.0158,-3.77256 -2.5962,-5.82345 -1.1328,-4.00277 -2.1713,-8.03303 -3.1886,-12.0671 -0.2204,-0.87386 -0.538,-1.62587 -1.1953,-2.23458 -0.7804,-0.7228 -1.4975,-1.52903 -2.3441,-2.16273 -3.3161,-2.48217 -7.8815,-2.41822 -11.1613,0.098 -0.3169,0.24314 -0.6293,0.49458 -0.9245,0.76336 -2.16,1.96657 -2.1463,1.99552 -2.8,4.85053 -0.9512,4.15423 -1.8797,8.31696 -3.3895,12.31773 -0.6005,1.59129 -1.2331,3.17856 -2.2557,4.55091 -0.531,0.71262 -1.1439,1.40352 -1.8443,1.94242 -1.515,1.16564 -3.4824,1.08396 -5.0108,-0.0656 -1.2346,-0.9285 -2.0376,-2.18553 -2.7099,-3.53748 -1.567,-3.15145 -2.5126,-6.51881 -3.3737,-9.90996 -0.5899,-2.32344 -1.1227,-4.6616 -1.6626,-6.99742 -0.1308,-0.56566 -0.3351,-1.0638 -0.7605,-1.47803 -0.6438,-0.62687 -1.2319,-1.31275 -1.8934,-1.91924 -1.5207,-1.39412 -3.3097,-2.21396 -5.3811,-2.38068 -0.2914,-0.0235 -0.5817,-0.0603 -0.9113,-0.0951 0,-0.56753 0,-1.09079 0,-1.69751 2.0942,-0.13206 3.9877,0.44506 5.8921,1.56619 0.2131,0.0732 0.2998,0.0741 0.3865,0.0749 -0.03,-0.10128 -0.06,-0.20255 -0.091,-0.30383 -0.7081,-1.493 -1.6689,-2.7902 -2.9501,-3.84568 -0.9317,-0.76764 -2.0323,-1.09347 -3.2393,-1.22219 0,-0.56626 0,-1.08874 0,-1.69552 2.0833,-0.15491 3.6711,0.87962 5.2163,2.18341 -0.058,-0.91398 -0.7869,-2.43914 -1.8372,-3.79693 -0.7239,-0.9359 -1.2733,-1.68482 -3.4221,-2.18001 0,-0.27229 -0.01,-0.56592 0,-0.85917 0.01,-0.26353 0.029,-0.52666 0.049,-0.85911 1.7737,0.082 3.1534,0.82321 4.3078,2.25263 0.2146,0.25553 0.3637,0.41123 0.5127,0.56693 0.043,-0.0267 0.085,-0.0535 0.1274,-0.0803 -0.084,-0.18613 -0.1685,-0.37225 -0.2528,-0.55838 m 29.1677,-0.10923 c -0.026,0.16706 -0.051,0.33413 -0.077,0.50119 0.051,0.0256 0.1021,0.0512 0.1532,0.0768 0.1593,-0.20792 0.3187,-0.41585 0.5763,-0.71668 2.1607,-2.37661 5.5611,-2.81784 8.2865,0.11345 0.1548,0.16648 0.2496,0.38871 0.3724,0.585 0.169,-0.24434 0.1959,-0.35008 0.165,-0.43478 -0.5478,-1.50344 -1.2136,-2.95001 -2.1973,-4.22283 -0.3009,-0.38929 -0.6601,-0.75192 -1.0516,-1.04911 -0.9323,-0.70782 -1.9226,-0.77021 -2.8577,-0.0716 -0.5981,0.44694 -1.1709,1.01437 -1.5489,1.6503 -0.658,1.10677 -1.1566,2.30826 -1.8211,3.56824 m -20.9079,19.60696 c -0.028,0.073 -0.057,0.14607 -0.046,0.35098 0.6693,1.27359 1.4768,2.4504 2.4936,3.47205 2.1063,2.11643 5.1535,2.26881 7.3581,0.26312 0.8484,-0.77185 1.501,-1.76496 2.2055,-2.68586 0.2853,-0.37295 0.4707,-0.82227 0.7016,-1.23684 -0.3643,0.005 -0.5841,0.12774 -0.8106,0.23688 -0.5983,0.28838 -1.1755,0.64775 -1.8034,0.84279 -3.2952,1.02358 -6.493,0.86935 -9.5292,-0.9094 -0.1681,-0.0985 -0.3563,-0.16286 -0.5695,-0.33372 m 29.2332,-13.0166 c -2.3148,-2.09633 -5.6402,-1.79666 -7.5752,0.47048 -0.7737,0.90658 -1.431,1.9137 -2.1227,2.88828 -0.1366,0.19243 -0.1878,0.44541 -0.3696,0.89685 2.0937,-1.46532 4.2122,-2.03009 6.5008,-2.03637 2.2739,-0.006 4.3747,0.58353 6.34,1.78898 -0.5836,-1.54348 -1.5212,-2.79899 -2.7733,-4.00822 m -17.4886,17.87761 c -0.2276,0.19071 -0.4582,0.37797 -0.6824,0.57265 -2.855,2.47948 -6.7035,2.48377 -9.5364,0.0104 -0.1982,-0.17305 -0.4022,-0.33941 -0.6154,-0.51884 -0.027,0.0973 -0.075,0.17094 -0.056,0.21868 0.6563,1.68478 1.4781,3.28165 2.7758,4.56449 1.6408,1.62208 3.6409,1.6056 5.3159,0.01 0.2635,-0.25101 0.5043,-0.53111 0.7245,-0.82139 0.9092,-1.19902 1.6211,-2.50764 2.0742,-4.03604 m 16.1095,-23.91388 c -1.9237,-1.46266 -3.7734,-0.70223 -4.9269,0.49404 -1.2238,1.26934 -2.0101,2.79745 -2.6824,4.39793 -0.025,0.06 0.031,0.15436 0.071,0.32046 1.5686,-1.50611 3.3213,-2.42125 5.4821,-2.38697 2.1185,0.0336 3.8437,0.94288 5.36,2.38412 -0.7594,-1.92386 -1.5969,-3.75838 -3.3034,-5.20958 m -24.4559,30.90628 c -0.5635,-0.47838 -1.127,-0.95676 -1.6905,-1.43515 0.5846,1.94949 1.3455,3.7816 2.8274,5.18515 1.0789,1.02198 2.4859,1.02196 3.5899,-0.0109 1.5209,-1.42307 2.2451,-3.30897 2.8922,-5.27118 -2.1561,2.27928 -4.5509,3.23433 -7.619,1.53213 m 36.234,-6.66006 c 0.04,0.0267 0.08,0.0533 0.12,0.08 -0.01,-0.06 -0.013,-0.12 -0.12,-0.08 m -38.1368,5.01138 c 0,0 0.058,0.0351 0.058,0.0351 0,0 -0.01,-0.072 -0.058,-0.0351 m 39.0368,0.68862 c 0.027,-0.04 0.053,-0.08 0.08,-0.12 -0.06,0.007 -0.12,0.0133 -0.08,0.12 m -19.8176,-29.72077 c 0,0 0.023,-0.0183 0,0 z"
     id="path4"
     inkscape:connector-curvature="0" /><path
     style="opacity:1;fill:#ddd9d7;stroke:none;stroke-width:0.1"
     d="m 1259.0575,941.20776 c -0.3071,-0.0195 -0.5314,-0.0389 -0.7921,-0.0616 0,-0.56708 0,-1.09145 0,-1.69474 0.5483,0 1.093,0 1.7129,0 0,0.51734 0,1.06399 0,1.69246 -0.2742,0.0209 -0.5561,0.0424 -0.9208,0.0638 z"
     id="path20"
     inkscape:connector-curvature="0" /><path
     style="opacity:1;fill:#ddd9d7;stroke:none;stroke-width:0.1"
     d="m 1294.4593,940.10554 c 0,0.37635 0,0.67247 0,1.03536 -0.6209,0 -1.1657,0 -1.7702,0 0,-0.55056 0,-1.09933 0,-1.70868 0.5691,0 1.1151,0 1.7155,0 0.019,0.20856 0.037,0.40082 0.055,0.67332 z"
     id="path22"
     inkscape:connector-curvature="0" /><path
     style="opacity:1;fill:#ddd9d7;stroke:none;stroke-width:0.1"
     d="m 1289.0206,940.73913 c 0,-0.47444 0,-0.86724 0,-1.31266 0.6254,0 1.1707,0 1.7706,0 0,0.59268 0,1.14366 0,1.77292 -0.4975,0 -0.96,0.0269 -1.4156,-0.0174 -0.127,-0.0123 -0.2335,-0.23504 -0.3522,-0.44289 z"
     id="path24"
     inkscape:connector-curvature="0" /><path
     style="opacity:1;fill:#ddd9d7;stroke:none;stroke-width:0.1"
     d="m 1312.3308,941.17605 c -0.5418,0.0219 -0.9995,0.0219 -1.5224,0.0219 0,-0.60303 0,-1.14626 0,-1.75772 0.5651,0 1.108,0 1.7222,0 0.025,0.59258 0.2155,1.16039 -0.1998,1.73583 z"
     id="path26"
     inkscape:connector-curvature="0" /><path
     style="opacity:1;fill:#ddd9d7;stroke:none;stroke-width:0.1"
     d="m 1270.9044,939.93755 c 0,0.43826 0,0.79554 0,1.21032 -0.6284,0 -1.1659,0 -1.7669,0 0,-0.58012 0,-1.12076 0,-1.76723 0.4764,0 0.9353,-0.0383 1.3809,0.0218 0.1459,0.0197 0.2572,0.29544 0.3852,0.53506 z"
     id="path28"
     inkscape:connector-curvature="0" /><path
     style="opacity:1;fill:#ddd9d7;stroke:none;stroke-width:0.1"
     d="m 1273.953,939.37386 c 0.2459,0.11945 0.5331,0.22149 0.5519,0.36 0.061,0.44696 0.023,0.90735 0.023,1.41695 -0.6344,0 -1.1739,0 -1.7731,0 0,-0.56693 0,-1.08308 0,-1.72648 0.3604,-0.0165 0.7387,-0.0338 1.1985,-0.0505 z"
     id="path30"
     inkscape:connector-curvature="0" /><path
     style="opacity:1;fill:#ddd9d7;stroke:none;stroke-width:0.1"
     d="m 1297.6852,939.38028 c 0.691,0.50998 0.2881,1.14402 0.3454,1.77331 -0.5906,0 -1.1316,0 -1.7283,0 0,-0.59552 0,-1.13751 0,-1.77838 0.4598,0 0.8827,0 1.3829,0.005 z"
     id="path32"
     inkscape:connector-curvature="0" /><path
     style="opacity:1;fill:#e5e1dd;stroke:none;stroke-width:0.1"
     d="m 1308.9453,940.06141 c -0.014,0.41093 -0.029,0.7346 -0.046,1.09595 -0.5992,0 -1.1184,0 -1.7109,0 0,-0.57185 0,-1.11651 0,-1.77447 0.4478,0 0.8703,0.007 1.2924,-0.002 0.4301,-0.01 0.4731,0.26771 0.4644,0.68057 z"
     id="path36"
     inkscape:connector-curvature="0" /><path
     style="opacity:1;fill:#e5e1dd;stroke:none;stroke-width:0.1"
     d="m 1277.5803,939.38165 c 0.345,0.004 0.5659,0.0573 0.5715,0.36724 0.01,0.45121 0,0.90268 0,1.40191 -0.6358,0 -1.1529,0 -1.7449,0 0,-0.56504 0,-1.10511 0,-1.77021 0.3726,0 0.725,0 1.1713,10e-4 z"
     id="path38"
     inkscape:connector-curvature="0" /><path
     style="display:inline;opacity:1;fill:#ddd9d7;stroke:none;stroke-width:0.1"
     d="m 1255.4662,941.20777 c -0.3143,-0.0136 -0.5419,-0.0273 -0.8193,-0.0439 0,-0.58644 0,-1.13948 0,-1.74204 0.582,0 1.132,0 1.7356,0 0,0.5626 0,1.08288 0,1.71537 -0.267,0.0227 -0.5483,0.0467 -0.9163,0.0706 z"
     id="path34"
     inkscape:connector-curvature="0" /></g></svg>