<?xml version="1.0" encoding="UTF-8" standalone="no"?>
<svg
   xmlns:dc="http://purl.org/dc/elements/1.1/"
   xmlns:cc="http://creativecommons.org/ns#"
   xmlns:rdf="http://www.w3.org/1999/02/22-rdf-syntax-ns#"
   xmlns:svg="http://www.w3.org/2000/svg"
   xmlns="http://www.w3.org/2000/svg"
   xmlns:sodipodi="http://sodipodi.sourceforge.net/DTD/sodipodi-0.dtd"
   xmlns:inkscape="http://www.inkscape.org/namespaces/inkscape"
   version="1.1"
   id="Layer_1"
   x="0px"
   y="0px"
   width="100%"
   viewBox="0 0 2560 2560"
   enable-background="new 0 0 2560 2560"
   xml:space="preserve"
   sodipodi:docname="wave-white-on-blue.svg"
   inkscape:version="0.92.4 (5da689c313, 2019-01-14)"><metadata
   id="metadata77"><rdf:RDF><cc:Work
       rdf:about=""><dc:format>image/svg+xml</dc:format><dc:type
         rdf:resource="http://purl.org/dc/dcmitype/StillImage" /><dc:title></dc:title></cc:Work></rdf:RDF></metadata><defs
   id="defs75" /><sodipodi:namedview
   pagecolor="#ffffff"
   bordercolor="#666666"
   borderopacity="1"
   objecttolerance="10"
   gridtolerance="10"
   guidetolerance="10"
   inkscape:pageopacity="0"
   inkscape:pageshadow="2"
   inkscape:window-width="1390"
   inkscape:window-height="864"
   id="namedview73"
   showgrid="false"
   inkscape:zoom="0.78"
   inkscape:cx="1278.7179"
   inkscape:cy="1439.2836"
   inkscape:window-x="82"
   inkscape:window-y="0"
   inkscape:window-maximized="0"
   inkscape:current-layer="layer1" />









<path
   fill="#DDD9D7"
   opacity="1.000000"
   stroke="none"
   d=" M1038.206299,949.649109   C1035.135010,949.454163 1032.891602,949.259644 1030.284546,949.033569   C1030.284546,943.362732 1030.284546,938.119019 1030.284546,932.086182   C1035.767944,932.086182 1041.214600,932.086182 1047.414307,932.086182   C1047.414307,937.259521 1047.414307,942.726013 1047.414307,949.010803   C1044.671997,949.219849 1041.853149,949.434631 1038.206299,949.649109  z"
   id="path20" />
<path
   fill="#DDD9D7"
   opacity="1.000000"
   stroke="none"
   d=" M1392.224243,938.626953   C1392.225708,942.390442 1392.225708,945.351624 1392.225708,948.980530   C1386.015991,948.980530 1380.568726,948.980530 1374.523804,948.980530   C1374.523804,943.474976 1374.523804,937.987244 1374.523804,931.893738   C1380.213989,931.893738 1385.674561,931.893738 1391.678467,931.893738   C1391.869873,933.979309 1392.046265,935.901917 1392.224243,938.626953  z"
   id="path22" />
<path
   fill="#DDD9D7"
   opacity="1.000000"
   stroke="none"
   d=" M1337.836670,944.962830   C1337.808350,940.218445 1337.808350,936.290466 1337.808350,931.836243   C1344.062744,931.836243 1349.515137,931.836243 1355.514404,931.836243   C1355.514404,937.763062 1355.514404,943.272827 1355.514404,949.565430   C1350.540039,949.565430 1345.914551,949.834229 1341.358276,949.391724   C1340.088867,949.268555 1339.023804,947.041321 1337.836670,944.962830  z"
   id="path24" />
<path
   fill="#DDD9D7"
   opacity="1.000000"
   stroke="none"
   d=" M1570.939209,949.332092   C1565.520996,949.550964 1560.944092,949.550964 1555.714844,949.550964   C1555.714844,943.520630 1555.714844,938.088379 1555.714844,931.973755   C1561.365479,931.973755 1566.795288,931.973755 1572.937012,931.973755   C1573.190796,937.899597 1575.091797,943.577637 1570.939209,949.332092  z"
   id="path26" />
<path
   fill="#DDD9D7"
   opacity="1.000000"
   stroke="none"
   d=" M1156.675049,936.947021   C1156.683472,941.329651 1156.683472,944.902466 1156.683472,949.050232   C1150.399658,949.050232 1145.024658,949.050232 1139.014160,949.050232   C1139.014160,943.249084 1139.014160,937.842651 1139.014160,931.377991   C1143.778076,931.377991 1148.367188,930.994629 1152.823242,931.596497   C1154.282227,931.793579 1155.395386,934.550842 1156.675049,936.947021  z"
   id="path28" />
<path
   fill="#DDD9D7"
   opacity="1.000000"
   stroke="none"
   d=" M1187.160767,931.310181   C1189.619385,932.504639 1192.491943,933.525024 1192.680176,934.910156   C1193.287354,939.379761 1192.906494,943.983643 1192.906494,949.079651   C1186.562500,949.079651 1181.168335,949.079651 1175.176270,949.079651   C1175.176270,943.410400 1175.176270,938.248901 1175.176270,931.814880   C1178.780029,931.649719 1182.562866,931.476440 1187.160767,931.310181  z"
   id="path30" />
<path
   fill="#DDD9D7"
   opacity="1.000000"
   stroke="none"
   d=" M1424.482422,931.374390   C1431.392822,936.474182 1427.363770,942.814514 1427.936401,949.107422   C1422.030518,949.107422 1416.621338,949.107422 1410.654053,949.107422   C1410.654053,943.152222 1410.654053,937.732361 1410.654053,931.323608   C1415.251709,931.323608 1419.480469,931.323608 1424.482422,931.374390  z"
   id="path32" />
<path
   fill="#DDD9D7"
   opacity="1.000000"
   stroke="none"
   d=" M1002.292358,949.649292   C999.149719,949.512756 996.874146,949.376221 994.099487,949.209717   C994.099487,943.345398 994.099487,937.814941 994.099487,931.789307   C999.919556,931.789307 1005.419739,931.789307 1011.455688,931.789307   C1011.455688,937.415344 1011.455688,942.618164 1011.455688,948.943054   C1008.785583,949.170349 1005.972412,949.409851 1002.292358,949.649292  z"
   id="path34" />
<path
   fill="#E5E1DD"
   opacity="1.000000"
   stroke="none"
   d=" M1537.083984,938.185669   C1536.941040,942.294983 1536.791626,945.531616 1536.625000,949.145142   C1530.632568,949.145142 1525.441040,949.145142 1519.515991,949.145142   C1519.515991,943.426636 1519.515991,937.980042 1519.515991,931.400452   C1523.993652,931.400452 1528.218628,931.474121 1532.439819,931.379944   C1536.741089,931.283997 1537.170410,934.057068 1537.083984,938.185669  z"
   id="path36" />
<path
   fill="#E5E1DD"
   opacity="1.000000"
   stroke="none"
   d=" M1223.434204,931.388062   C1226.883789,931.425354 1229.092773,931.961060 1229.148926,935.060486   C1229.230713,939.572571 1229.169800,944.087219 1229.169800,949.079590   C1222.811279,949.079590 1217.640625,949.079590 1211.721191,949.079590   C1211.721191,943.429138 1211.721191,938.028442 1211.721191,931.377441   C1215.446533,931.377441 1218.970581,931.377441 1223.434204,931.388062  z"
   id="path38" />









<path
   fill="#1C2E53"
   opacity="1.000000"
   stroke="none"
   d=" M1138.886475,1086.929199   C1139.141235,1086.744751 1139.216431,1087.464966 1139.216431,1087.464966   C1139.216431,1087.464966 1138.631714,1087.113770 1138.886475,1086.929199  z"
   id="path58" />


<path
   fill="#1C2E53"
   opacity="1.000000"
   stroke="none"
   d=" M1123.142822,986.949463   C1123.113281,986.527222 1123.395996,985.796875 1123.850464,985.519531   C1124.022339,985.972595 1123.454834,986.641357 1123.142822,986.949463  z"
   id="path64" />



<g
   inkscape:groupmode="layer"
   id="layer1"
   inkscape:label="bg"><rect
     style="opacity:1;fill:#162950;fill-opacity:1;stroke:none;stroke-width:4.77336216;stroke-miterlimit:4;stroke-dasharray:none;stroke-opacity:1"
     id="rect884"
     width="810.25647"
     height="475.64105"
     x="878.20508"
     y="703.58972" /></g><g
   inkscape:groupmode="layer"
   id="layer2"
   inkscape:label="fg"><path
     style="opacity:1;fill:#e5e1dd;stroke:none"
     d="m 1041.0802,790.08917 c -6.2461,-12.45917 -11.9792,-25.21185 -18.8921,-37.28943 -6.0913,-10.64215 -14.7975,-18.83954 -28.05565,-21.08136 0,-5.79559 0,-11.34478 0,-17.52227 9.84905,-0.50647 18.03055,3.36706 25.54245,8.96258 12.6403,9.41535 20.84,22.38056 27.6623,36.19299 14.9749,30.31922 24.4993,62.57557 32.7553,95.21656 6.2049,24.5307 11.8004,49.21606 18.0811,73.7265 1.1825,4.61493 3.6305,9.30469 6.6932,12.95373 5.9778,7.1222 12.396,13.99146 19.3447,20.16254 37.1774,33.01721 90.4417,32.39935 127.1642,-1.19666 23.1903,-21.216 23.1258,-21.23083 30.3687,-52.60247 8.2379,-35.68231 16.094,-71.47547 27.9945,-106.18659 6.9189,-20.18103 14.5325,-40.0722 26.3579,-58.04901 5.5503,-8.43756 12.1046,-15.88299 20.4211,-21.69836 15.1825,-10.61652 32.3942,-10.61225 47.6064,-0.0751 13.0267,9.02338 21.3291,21.81372 28.3564,35.56745 13.2556,25.94305 22.0974,53.53094 29.3588,81.60724 7.6687,29.65136 14.5289,59.51141 22.0857,89.19287 1.1788,4.62964 3.6904,9.143 6.4736,13.08282 3.2445,4.59284 7.3582,8.59882 11.2803,12.68115 17.2047,17.90772 37.6078,29.5246 62.7875,31.65851 2.6295,0.22278 5.2419,0.64685 8.3643,1.0409 0,5.44891 0,10.62201 0,16.85584 -21.4192,0.9727 -40.6389,-4.92408 -59.7642,-16.54402 -5.0817,-1.30072 -3.5971,0.61811 -2.5903,2.31299 6.5192,14.10463 15.9173,26.15063 27.162,36.68643 7.4058,6.9387 16.3012,11.4863 26.4478,13.2639 2.902,0.5084 5.7875,1.1115 8.8107,1.6963 0,5.5897 0,10.8186 0,16.5802 -10.2964,1.2437 -19.638,-0.974 -28.2074,-5.2919 -8.0893,-4.0759 -15.5131,-9.4727 -23.5405,-14.4825 2.4227,23.5095 27.9484,51.931 51.6867,57.4245 0.1713,2.6513 0.422,5.5334 0.5243,8.4207 0.091,2.5804 0.019,5.1667 0.019,8.4323 -18.5188,1.4704 -30.9773,-9.3101 -44.1465,-20.0204 0.084,9.1447 5.1648,20.5212 15.0061,35.4597 6.9303,10.5193 14.8113,19.7845 28.6246,21.8218 0,5.6057 0,10.8248 0,16.5011 -8.0671,2.2011 -14.9116,-1.2829 -21.4182,-5.1723 -9.9248,-5.933 -17.2349,-14.5377 -23.3478,-24.26 -11.4317,-18.1816 -20.1585,-37.7256 -25.9626,-58.2345 -11.3281,-40.0277 -21.713,-80.33033 -31.8861,-120.67103 -2.2036,-8.73859 -5.38,-16.25873 -11.9525,-22.34582 -7.8045,-7.22803 -14.975,-15.29029 -23.4411,-21.62732 -33.161,-24.82172 -78.8155,-24.18219 -111.6131,0.97979 -3.1693,2.43146 -6.2929,4.94586 -9.245,7.63361 -21.5998,19.66571 -21.4633,19.95526 -28.0003,48.50531 -9.5117,41.54236 -18.7967,83.16966 -33.8945,123.17736 -6.005,15.9129 -12.3311,31.7856 -22.557,45.5091 -5.3099,7.1262 -11.4395,14.0352 -18.4436,19.4242 -15.1498,11.6564 -34.8233,10.8396 -50.1078,-0.6555 -12.3457,-9.285 -20.3759,-21.8553 -27.0984,-35.3748 -15.6703,-31.5145 -25.1267,-65.1881 -33.7373,-99.0996 -5.8995,-23.2344 -11.2268,-46.61601 -16.6262,-69.97429 -1.3076,-5.65656 -3.3506,-10.63794 -7.6049,-14.78027 -6.438,-6.26868 -12.3188,-13.12745 -18.9342,-19.19239 -15.2068,-13.94122 -33.0967,-22.13958 -53.8109,-23.80682 -2.9138,-0.2345 -5.81664,-0.60346 -9.1126,-0.95099 0,-5.67529 0,-10.9079 0,-16.9751 20.9416,-1.32055 39.8768,4.45063 58.9208,15.66193 2.1313,0.7323 2.9978,0.74066 3.8645,0.74908 -0.3017,-1.01275 -0.6035,-2.02551 -0.9052,-3.03827 -7.0816,-14.93005 -16.6896,-27.90203 -29.5009,-38.45684 -9.3174,-7.6764 -20.3238,-10.9347 -32.39391,-12.22193 0,-5.66253 0,-10.88739 0,-16.95514 20.83351,-1.54907 36.71141,8.79621 52.16371,21.83405 -0.5816,-9.13977 -7.869,-24.39136 -18.3722,-37.9693 -7.2395,-9.35901 -12.7331,-16.84821 -34.22144,-21.80011 0,-2.72284 -0.0599,-5.65912 0.0179,-8.59167 0.07,-2.63532 0.29132,-5.26661 0.48657,-8.59113 17.73647,0.81964 31.53387,8.23212 43.07797,22.52637 2.1463,2.55529 3.6368,4.1123 5.1273,5.66931 0.4247,-0.26758 0.8493,-0.53516 1.274,-0.80274 -0.8428,-1.86126 -1.6855,-3.72253 -2.5283,-5.5838 m 291.6765,-1.09234 c -0.256,1.67065 -0.5119,3.3413 -0.7679,5.0119 0.5107,0.25598 1.0215,0.5119 1.5322,0.76788 1.5934,-2.07922 3.1868,-4.15851 5.7628,-7.16687 21.6073,-23.76611 55.6118,-28.17834 82.8654,1.13452 1.5478,1.66486 2.4961,3.88715 3.7235,5.84998 1.6909,-2.44336 1.9596,-3.50073 1.6509,-4.34778 -5.4781,-15.03436 -12.1361,-29.50006 -21.9737,-42.22827 -3.0088,-3.89295 -6.6009,-7.51923 -10.5154,-10.49109 -9.3234,-7.07819 -19.2268,-7.70209 -28.577,-0.71564 -5.9817,4.46942 -11.7092,10.14368 -15.4897,16.50299 -6.5795,11.06775 -11.5656,23.08258 -18.2111,35.68238 m -209.0781,196.06964 c -0.2826,0.7304 -0.5653,1.46075 -0.4617,3.50982 6.6937,12.73593 14.7681,24.50403 24.9359,34.72053 21.0638,21.1643 51.5353,22.6881 73.5813,2.6312 8.4839,-7.7185 15.0105,-17.6496 22.0552,-26.85862 2.8529,-3.72949 4.7073,-8.22272 7.0161,-12.36841 -3.6433,0.0494 -5.8417,1.2774 -8.1061,2.36883 -5.9827,2.88379 -11.7552,6.47748 -18.034,8.42786 -32.9525,10.23584 -64.9303,8.69354 -95.2924,-9.09405 -1.6811,-0.98493 -3.5625,-1.62855 -5.6943,-3.33716 m 292.3315,-130.16596 c -23.1476,-20.96338 -56.4017,-17.96667 -75.7517,4.70472 -7.7376,9.06585 -14.3105,19.13708 -21.2273,28.88287 -1.3657,1.92431 -1.8784,4.45404 -3.696,8.96844 20.9366,-14.65319 42.1225,-20.3009 65.0077,-20.36364 22.739,-0.0624 43.7478,5.83526 63.4007,17.88977 -5.8365,-15.43482 -15.212,-27.98993 -27.7334,-40.08216 m -174.8856,178.77611 c -2.2761,1.9071 -4.5824,3.7797 -6.8241,5.7265 -28.5505,24.7948 -67.0354,24.8377 -95.3641,0.1045 -1.982,-1.7305 -4.0225,-3.3941 -6.1543,-5.1884 -0.2678,0.9725 -0.7481,1.7094 -0.5622,2.1868 6.5635,16.8478 14.7809,32.8165 27.7579,45.6449 16.4089,16.2208 36.4098,16.056 53.1596,0.1 2.6349,-2.5101 5.043,-5.3111 7.2444,-8.2139 9.0929,-11.9902 16.2118,-25.0764 20.7428,-40.3604 m 161.0944,-239.13884 c -19.2365,-14.62665 -37.7342,-7.02234 -49.2683,4.94043 -12.2387,12.69336 -20.101,27.97443 -26.8247,43.97931 -0.252,0.59991 0.3143,1.54352 0.7065,3.20459 15.6853,-15.06116 33.213,-24.21253 54.821,-23.86975 21.1844,0.33612 38.4366,9.42877 53.5995,23.84125 -7.594,-19.23865 -15.969,-37.58387 -33.034,-52.09583 m -244.5584,309.06284 c -5.635,-4.7838 -11.2699,-9.5676 -16.9049,-14.3515 5.8457,19.4949 13.455,37.816 28.2732,51.8515 10.7898,10.2198 24.8596,10.2196 35.8989,-0.1095 15.2093,-14.2307 22.4518,-33.0897 28.9222,-52.7118 -21.5603,22.7928 -45.509,32.3433 -76.1894,15.3213 M 1520,1037 c 0.4,0.2667 0.7999,0.5333 1.2,0.8 -0.067,-0.5999 -0.1333,-1.2 -1.2,-0.8 m -381.3683,50.1138 c 0,0 0.5847,0.3512 0.5847,0.3512 0,0 -0.075,-0.7202 -0.5847,-0.3512 M 1529,1094 c 0.2667,-0.3999 0.5334,-0.7999 0.8,-1.2 -0.5999,0.067 -1.2,0.1334 -0.8,1.2 M 1330.8237,796.79224 c 0,0 0.2332,-0.18305 0,0 z"
     id="path4"
     inkscape:connector-curvature="0" /></g></svg>