<?xml version="1.0" encoding="UTF-8" standalone="no"?>
<svg
   xmlns:dc="http://purl.org/dc/elements/1.1/"
   xmlns:cc="http://creativecommons.org/ns#"
   xmlns:rdf="http://www.w3.org/1999/02/22-rdf-syntax-ns#"
   xmlns:svg="http://www.w3.org/2000/svg"
   xmlns="http://www.w3.org/2000/svg"
   xmlns:sodipodi="http://sodipodi.sourceforge.net/DTD/sodipodi-0.dtd"
   xmlns:inkscape="http://www.inkscape.org/namespaces/inkscape"
   version="1.1"
   id="Layer_1"
   x="0px"
   y="0px"
   width="640"
   viewBox="0 0 640 640"
   enable-background="new 0 0 2560 2560"
   xml:space="preserve"
   sodipodi:docname="siglyx-blue-on-white.svg"
   inkscape:version="0.92.4 (5da689c313, 2019-01-14)"
   inkscape:export-filename="/home/konstant/siglyx/pcloud/promo/logo/sine/siglyx-white-on-black.svg.png"
   inkscape:export-xdpi="96"
   inkscape:export-ydpi="96"
   height="640"><metadata
   id="metadata97"><rdf:RDF><cc:Work
       rdf:about=""><dc:format>image/svg+xml</dc:format><dc:type
         rdf:resource="http://purl.org/dc/dcmitype/StillImage" /><dc:title /></cc:Work></rdf:RDF></metadata><defs
   id="defs95" /><sodipodi:namedview
   pagecolor="#ffffff"
   bordercolor="#666666"
   borderopacity="1"
   objecttolerance="10"
   gridtolerance="10"
   guidetolerance="10"
   inkscape:pageopacity="0"
   inkscape:pageshadow="2"
   inkscape:window-width="1627"
   inkscape:window-height="977"
   id="namedview93"
   showgrid="false"
   inkscape:zoom="0.63"
   inkscape:cx="227.4399"
   inkscape:cy="273.84721"
   inkscape:window-x="82"
   inkscape:window-y="0"
   inkscape:window-maximized="0"
   inkscape:current-layer="Layer_1"
   height="1px"
   fit-margin-top="0"
   fit-margin-left="0"
   fit-margin-right="0"
   fit-margin-bottom="0" />

<rect
   style="opacity:1;fill:#e6e1dc;fill-opacity:1;stroke:none;stroke-width:1.05317152;stroke-miterlimit:4;stroke-dasharray:none;stroke-opacity:1"
   id="rect904"
   width="640"
   height="640"
   x="0"
   y="0" /><path
   d="m 139.9563,241.59679 c -4.7597,8.969 -10.5977,17.1937 -18.1904,23.9301 -7.6959,6.8279 -16.7129,11.1334 -27.5181,11.6238 0,5.1423 0,9.9573 0,15.0961 14.2234,0.7334 25.9685,-5.2845 37.3285,-13.6121 0.2236,15.3728 -20.1769,37.2806 -37.2872,40.8943 0,4.7015 0,9.4976 0,14.6935 12.3223,1.7044 21.3954,-5.5888 31.146,-11.7717 0.2666,14.5516 -17.0553,35.894 -31.2634,39.2193 0,4.5341 0,9.1411 0,14.3979 7.4858,1.5819 14.2427,-0.8351 19.7677,-5.5135 5.4588,-4.6223 10.5125,-9.9801 14.7343,-15.7536 9.3921,-12.844 14.7954,-27.7264 20.0981,-42.5798 10.5944,-29.6762 17.2332,-60.4254 24.5951,-90.97714 1.2065,-5.00716 2.2527,-10.05499 3.5636,-15.03381 0.3696,-1.40373 1.2488,-2.76469 2.1789,-3.91514 7.9921,-9.88518 16.9034,-18.87655 27.5791,-25.82601 13.4965,-8.78559 28.6219,-11.38519 44.4648,-10.34307 17.2894,1.1373 31.6812,8.82342 44.056,20.4459 17.602,16.53204 17.1856,16.71138 22.8585,42.13107 6.7917,30.4327 13.537,60.9181 24.7287,90.1467 5.6351,14.7171 11.3085,29.5002 21.8704,41.6036 3.3668,3.8583 7.27,7.3054 11.2242,10.5831 9.8702,8.182 31.3667,7.8587 42.8299,-3.6776 10.0989,-10.1631 16.7986,-22.1003 22.5012,-34.9159 10.4288,-23.4364 16.855,-48.1338 23.0834,-72.885 4.2716,-16.9749 8.1294,-34.0538 12.3619,-51.03888 0.6523,-2.61816 1.9495,-5.27164 3.5942,-7.41261 7.2902,-9.4902 16.0551,-17.45696 25.9412,-24.20686 9.8574,-6.73035 20.9145,-9.7979 32.6445,-10.84638 2.0299,-0.18147 4.0744,-0.19619 6.3928,-0.30053 0,-4.90424 0,-9.53986 0,-15.05914 -15.4158,-1.3116 -29.7053,2.64489 -44.2521,10.55763 -3.9893,0.95952 -3.1553,-0.45024 -2.1903,-1.92551 4.3607,-8.87506 10.379,-16.5825 17.4139,-23.40394 7.8267,-7.5891 17.1442,-12.24081 28.8416,-12.01087 0,-4.95048 0,-9.71734 0,-15.0545 -13.4554,-1.95265 -24.7986,3.30133 -36.0234,11.61475 -0.6469,0.48494 -1.2703,0.66285 -1.3581,1.03073 -0.8849,1.07848 -1.682,1.78908 -2.479,2.49968 -0.2419,-0.21342 -0.4838,-0.42693 -0.7256,-0.64044 0.6259,-1.28744 1.2517,-2.57488 1.8509,-4.03519 -0.026,-0.17288 0.244,-0.39437 0.244,-0.39437 5.2228,-8.54952 10.0144,-17.40475 15.7951,-25.558863 5.3078,-7.48719 13.5229,-10.93605 22.7833,-12.62602 0,-4.90907 0,-9.73414 0,-15.07025 -12.983,-0.67301 -22.9085,5.92566 -32.9516,13.12548 1.8871,-9.34444 6.7487,-17.03022 11.8009,-24.60712 5.1321,-7.69671 11.0455,-14.42004 21.2318,-15.36153 0,-5.26803 0,-10.09366 0,-15.37575 -9.9256,-0.18637 -17.7661,3.69864 -24.6762,9.97728 -6.9968,6.35743 -11.9855,14.14034 -16.3715,22.43525 -11.7942,22.30509 -19.1589,46.211583 -25.4861,70.462023 -5.4644,20.94394 -10.7285,41.95045 -15.4585,63.0687 -1.2149,5.42425 -3.7798,9.47867 -7.226,13.29607 -7.9958,8.85722 -16.2777,17.51022 -27.0698,22.98086 -26.1429,13.2523 -51.7173,12.6356 -75.8505,-4.72405 -7.5012,-5.39573 -13.9119,-12.30128 -20.8656,-18.46623 -5.1326,-4.55027 -6.5891,-10.69838 -7.9971,-17.04376 -7.0916,-31.95773 -14.2761,-63.90427 -24.7249,-94.982193 -5.2777,-15.69778 -11.4484,-31.0593 -20.7434,-44.89167 -5.2266,-7.77798 -11.4711,-14.69725 -20.0966,-18.93703 -12.4809,-6.13481 -26.9667,-3.54238 -37.4092,5.78022 -12.5923,11.24184 -19.6258,25.85012 -25.7377,40.9913 -9.4817,23.48848 -16.1334,47.873543 -21.9396,72.495763 -3.6662,15.54698 -7.313,31.09871 -11.0493,46.62888 -0.4104,1.70559 -1.0179,3.56041 -2.1039,4.87529 -7.9103,9.57735 -16.3653,18.56355 -26.813,25.54576 -11.7562,7.85672 -24.7334,11.26622 -39.1976,11.66222 0,4.9985 0,10.0113 0,15.3875 15.4907,0.2045 29.924,-2.7162 44.1687,-11.0565 1.1328,0.6042 1.2576,1.629 1.3825,2.6538 m -5.6674,33.1856 c 0,0 0.3924,0.1762 0.3924,0.1762 0,0 -0.3696,-0.3651 -0.087,0.7904 -0.5068,1.3925 -1.0138,2.7849 -2.7957,4.7772 -0.047,-0.7461 -0.095,-1.4923 0.1759,-3.1598 0.8889,-0.9389 1.7779,-1.8778 2.3148,-2.584 M 276.5452,80.639207 c -0.9211,-0.89697 -1.8607,-1.77599 -2.7607,-2.69364 -15.443,-15.74498 -41.4127,-17.43902 -58.6931,-0.34975 -1.2397,1.22611 -2.7487,2.18013 -4.3256,4.16506 -0.3795,0.0456 -0.7589,0.0911 -1.1386,0.13671 0.1939,-0.60379 0.3879,-1.20759 0.7512,-2.92747 1.1057,-2.60335 1.9652,-5.34797 3.3628,-7.78395 4.3493,-7.5807 8.1777,-15.61472 13.5384,-22.42605 9.092,-11.55246 21.5123,-13.93662 32.8642,-1.56797 8.7076,9.4875 14.1178,20.81896 18.8512,33.52414 -0.069,0.43501 -0.1389,0.8701 -0.2082,1.3051 -0.4017,-0.38905 -0.8035,-0.7781 -2.2416,-1.38218 m 86.3581,239.713483 c 21.8506,20.8953 43.718,18.4224 65.7565,-0.5306 -3.8336,12.8048 -9.8629,23.8577 -18.1784,33.4182 -4.4154,5.0763 -10.285,8.8743 -17.737,7.6889 -7.2837,-1.1586 -13.2031,-5.1555 -16.8548,-11.2552 -5.5366,-9.2485 -10.1322,-19.0603 -15.5763,-29.4243 0.099,-0.4342 0.1973,-0.8683 0.296,-1.3025 0.4262,0.3742 0.8524,0.7485 2.294,1.4055 m -5.6881,-42.2739 c 1.4444,1.09 2.8866,2.1827 4.3335,3.2695 21.3882,16.0675 50.4879,13.536 67.088,-0.063 1.2986,-1.0637 2.8495,-1.8194 4.3505,-2.7605 0.3563,0.8725 0.8083,1.4248 0.6802,1.7455 -4.3557,10.9003 -10.1505,21.0302 -18.3715,29.3949 -12.4091,12.6264 -27.7784,12.4493 -40.4769,-0.034 -8.9747,-8.8221 -15.1536,-19.4642 -20.2626,-31.5181 -0.023,-0.6338 -0.046,-1.2677 -0.068,-1.9014 0.6223,0.4269 1.2446,0.8538 2.7275,1.8664 M 206.0376,122.32772 c -0.5567,-0.029 -1.1136,-0.058 -1.6703,-0.087 0.2269,-0.61823 0.4536,-1.23655 0.9965,-2.92519 3.3838,-6.0881 6.5171,-12.33371 10.2191,-18.22177 4.0036,-6.367793 8.9076,-11.945703 15.5578,-15.913963 8.8791,-5.29823 17.4376,-5.24364 26.2053,0.16566 5.8369,3.60124 10.42,8.327 14.2292,13.97013 4.9966,7.402313 9.7264,14.913323 13.4653,24.956303 -2.3809,-1.44427 -3.1538,-1.93718 -3.9486,-2.39155 -6.6784,-3.81788 -12.9386,-9.15342 -20.1247,-11.14206 -18.1369,-5.01902 -35.8003,-3.55898 -51.273,8.81459 -0.9725,0.77772 -2.2092,1.22507 -3.6566,2.77481 m 82.7337,39.39537 c -21.7222,-12.59601 -44.8921,-14.23657 -68.7396,-8.31707 -7.3984,1.8365 -14.3362,5.52883 -21.7976,9.15441 -0.3092,-0.58154 -0.6183,-1.16307 -0.6146,-2.79684 5.0474,-7.12419 9.5203,-14.75359 15.2537,-21.27465 15.1672,-17.2509 38.9252,-19.7072 56.0921,-5.97697 9.6202,7.69433 16.3284,17.70147 22.7095,29.03273 -0.094,0.37828 -0.1873,0.75655 -0.281,1.13483 -0.5064,-0.26326 -1.013,-0.52652 -2.6225,-0.95644 m 152.2202,76.16654 c 0.4347,0.06 0.8694,0.1207 1.304,0.181 -0.3278,0.5267 -0.6556,1.0533 -1.0956,2.6713 -5.5207,7.73 -10.1077,16.4049 -16.7653,22.9847 -12.1589,12.0165 -26.8172,17.0209 -43.8552,10.2499 -6.6281,-2.6339 -12.0764,-6.8094 -16.8544,-11.9543 -6.5674,-7.0718 -12.1654,-14.7989 -16.7429,-24.4309 1.8286,0.5355 2.5856,0.6008 3.1718,0.9516 18.2933,10.944 38.0604,13.0542 58.8628,10.6078 11.3025,-1.329 21.2821,-5.7829 31.9748,-11.2611 m -314.1581,84.7012 c -0.3111,0.2074 -0.6221,0.4148 -0.9333,0.6222 0.052,-0.4666 0.1038,-0.9333 0.9333,-0.6222 m 302.2321,-4.4175 c 0,0 0.4392,-0.2096 0.4392,-0.2096 0,0 -0.1082,0.5281 -0.4392,0.2096 m 4.9679,-39.9125 c -0.2074,-0.3111 -0.4148,-0.6223 -0.6222,-0.9334 0.4666,0.052 0.9333,0.1038 0.6222,0.9334 M 284.425,124.86956 c 0,0 0.3981,-0.26535 0.3981,-0.26535 0,0 -0.032,0.53117 -0.3981,0.26535 z"
   id="path4"
   inkscape:connector-curvature="0"
   style="opacity:1;fill:#162950;stroke:none;stroke-width:0.77772158;fill-opacity:1" />
<path
   d="m 202.8935,584.45429 c 13.61,5.9286 27.3985,7.3773 41.2723,5.5005 16.7835,-2.2704 26.9731,-10.2211 29.0724,-30.6474 0.5228,-5.0878 0.078,-10.2753 0.078,-17.1772 -15.3015,16.6676 -33.6655,20.4047 -53.6186,17.231 -14.8259,-2.3581 -27.0703,-9.752 -35.8167,-22.3272 -16.2433,-23.3537 -12.1561,-57.3901 9.0742,-75.2223 19.9415,-16.7496 57.5528,-20.3934 81.4973,5.9274 0,-6.0798 0,-11.2992 0,-17.0492 5.6035,0 10.3886,0 15.5823,0 0.129,1.867 0.3882,3.8821 0.3897,5.8975 0.024,34.2164 0.1198,68.4332 -0.037,102.6489 -0.061,13.185 -4.5501,24.755 -14.1331,34.1325 -6.5343,6.3944 -14.7207,9.8398 -23.3331,11.5231 -21.0998,4.1241 -41.5961,1.9769 -60.9068,-8.1073 -12.343,-6.4458 -12.789,-8.5035 -4.3177,-19.1996 0.4697,-0.5931 1.1266,-1.038 1.5851,-1.4516 4.4362,2.7232 8.7598,5.3773 13.612,8.3209 m 37.0332,-119.385 c -7.2234,-2.2051 -14.4074,-0.7658 -21.2583,1.1667 -25.4893,7.1904 -31.9285,35.1482 -23.9721,55.0394 9.8819,24.7055 43.0296,28.928 61.2922,17.051 14.338,-9.3246 19.001,-22.832 17.6059,-39.8589 -1.3176,-16.0799 -16.782,-32.4082 -33.6677,-33.3982 z"
   id="path6"
   inkscape:connector-curvature="0"
   style="opacity:1;fill:#162950;stroke:none;stroke-width:0.77772158;fill-opacity:1" />
<path
   d="m 501.1552,453.89849 c 0.1926,33.8466 0.4487,67.0114 0.1115,100.1702 -0.094,9.2204 -1.9181,18.399 -5.7667,27.0293 -5.841,13.0979 -16.3082,20.9068 -29.7327,23.8453 -18.0293,3.9465 -35.9347,2.2656 -52.935,-5.4684 -5.6251,-2.5592 -11.024,-5.6325 -15.5171,-11.2578 2.6345,-4.104 5.3247,-8.2947 8.1762,-12.7366 3.7257,2.5227 6.6463,4.5562 9.622,6.5053 10.7311,7.0292 22.5751,9.3533 35.2061,8.1563 3.8238,-0.3625 7.6893,-0.6537 11.4282,-1.4699 9.7464,-2.1275 15.5898,-8.8356 19.0274,-17.6765 3.217,-8.2728 2.644,-16.9695 2.3389,-26.4516 -18.1275,17.3917 -38.4738,19.3508 -60.1787,11.8744 -14.4737,-4.9857 -22.0771,-16.4722 -25.1347,-30.9586 -1.214,-5.7519 -1.5685,-11.7623 -1.6419,-17.6633 -0.2094,-16.838 -0.1136,-33.6806 -0.054,-50.521 0.024,-6.8364 0.2714,-7.0087 6.951,-7.126 3.0904,-0.054 6.1825,-0.01 10.2415,-0.01 0.3964,3.1462 1.0701,6.0681 1.0822,8.9927 0.069,16.5805 -0.1336,33.1625 0.016,49.7416 0.044,4.8504 0.2842,9.8713 1.5527,14.5081 5.1267,18.7411 21.4813,22.8539 36.568,20.6488 19.5741,-2.8611 30.583,-16.4171 30.7201,-36.4838 0.1115,-16.3217 0.023,-32.6446 0.068,-48.9669 0.01,-2.512 0.2543,-5.0234 0.438,-8.4132 5.1946,0 9.7884,-0.1821 14.3467,0.1386 1.0317,0.073 1.9405,1.8927 3.0665,3.5923 z"
   id="path8"
   inkscape:connector-curvature="0"
   style="opacity:1;fill:#162950;stroke:none;stroke-width:0.77772158;fill-opacity:1" />
<path
   d="m 40.1503,450.18899 c 20.6076,-3.8425 39.5039,-1.2393 57.6246,8.9476 -1.4776,5.7404 -3.2639,10.602 -7.9043,14.222 -3.1642,-1.6272 -6.0288,-3.3301 -9.0678,-4.6229 -12.4763,-5.3074 -25.3679,-6.3307 -38.4489,-2.8224 -2.8842,0.7736 -5.6962,2.5903 -8.01733,4.5479 -7.62807,6.4334 -7.29893,17.414 1.44933,22.1199 6.4106,3.4484 13.9555,4.8719 21.084,6.8813 9.3849,2.6455 18.9907,4.5701 28.2496,7.5795 7.4253,2.4133 12.8557,7.6735 15.2471,15.3588 3.6603,11.7636 0.8851,25.2331 -8.996,32.8577 -8.1091,6.2573 -17.413,9.1865 -27.23,9.8656 -12.094,0.8365 -24.2558,0.6249 -36.04413,-3.241 -7.14527,-2.3433 -13.93875,-5.2225 -20.63074,-10.7899 2.42407,-4.5828 4.86095,-9.1896 7.53864,-14.2518 15.93636,12.0205 33.20213,14.3635 51.40193,12.3067 6.5988,-0.7457 12.5744,-2.9213 16.1779,-9.115 3.8364,-6.5944 2.6517,-13.798 -4.0458,-17.3914 -5.3317,-2.8605 -11.4675,-4.3846 -17.3957,-5.9279 -6.6983,-1.7437 -13.6357,-2.5702 -20.3326,-4.3183 -4.952,-1.2926 -9.84592,-3.0772 -14.48861,-5.2379 -20.16451,-9.3839 -17.65951,-37.9897 -4.62313,-47.7716 5.48064,-4.1125 11.34797,-7.0976 18.45194,-9.1969 z"
   id="path10"
   inkscape:connector-curvature="0"
   style="opacity:1;fill:#162950;stroke:none;stroke-width:0.77772158;fill-opacity:1" />
<path
   d="m 531.309,457.76399 c -1.5591,-2.3174 -2.8553,-4.1497 -4.8153,-6.9207 7.034,0 13.0809,0 19.9081,0 10.2848,13.3782 21.0771,27.4162 32.249,41.9479 11.2058,-14.551 21.9048,-28.444 32.4903,-42.1895 6.0099,0 11.8414,0 19.3332,0 -13.6482,19.5266 -28.3583,36.6003 -41.9009,55.1353 14.6217,18.8701 29.1366,37.6024 44.7405,57.7402 -7.2032,0.084 -12.9458,0.4374 -18.6346,0.033 -1.578,-0.1122 -3.2459,-2.2781 -4.4481,-3.8306 -9.3283,-12.0464 -18.5481,-24.1768 -27.8148,-36.271 -1.0775,-1.4063 -2.2365,-2.75 -3.8803,-4.7628 -6.5421,8.5423 -12.7733,16.6862 -19.0129,24.8236 -4.2414,5.5317 -8.772,10.8694 -12.6309,16.6556 -2.0799,3.1186 -4.4807,3.7751 -7.7971,3.6584 -4.6,-0.1618 -9.2101,-0.041 -15.2845,-0.041 15.4236,-20.1296 29.942,-39.0777 44.6081,-58.2188 -12.4799,-16.0121 -24.6634,-31.6438 -37.1098,-47.7603 z"
   id="path12"
   inkscape:connector-curvature="0"
   style="opacity:1;fill:#162950;stroke:none;stroke-width:0.77772158;fill-opacity:1" />
<path
   d="m 376.4115,563.71989 c -9.5711,2.6869 -18.6029,2.6459 -27.2281,-0.5477 -9.2671,-3.4312 -17.0877,-12.5068 -17.2561,-26.1382 -0.2718,-21.9989 -0.072,-44.0036 -0.071,-66.006 4e-4,-19.4138 1e-4,-38.8276 2e-4,-58.2414 0,-2.5469 0,-5.0939 0,-7.4119 6.4131,-2.6269 10.4477,-2.6389 17.1678,-0.091 0,2.4005 1e-4,4.9684 1e-4,7.5363 3e-4,39.0864 -0.01,78.1729 0.022,117.2593 0,2.5705 -0.1215,5.2558 0.5392,7.6908 2.5812,9.514 10.7931,14.1659 20.8941,12.1997 1.9982,-0.3891 4.0421,-0.5431 6.3616,-0.844 2.2064,4.9856 3.0162,9.6625 -0.4295,14.5936 z"
   id="path14"
   inkscape:connector-curvature="0"
   style="opacity:1;fill:#162950;stroke:none;stroke-width:0.77772158;fill-opacity:1" />
<path
   d="m 128.0997,524.57189 c 0.041,-24.5776 0.079,-48.3773 0.1475,-72.177 0,-0.4733 0.3601,-0.9458 0.7187,-1.8289 4.9014,0 9.9663,0 14.9833,0 1.6878,5.4747 2.3408,98.6483 0.7341,113.1694 -2.6614,0 -5.4321,0 -8.2027,0 -2.5336,0 -5.0673,0 -8.3809,0 0,-13.1767 0,-25.7812 0,-39.1635 z"
   id="path16"
   inkscape:connector-curvature="0"
   style="opacity:1;fill:#162950;stroke:none;stroke-width:0.77772158;fill-opacity:1" />
<path
   d="m 129.6905,425.41949 c -4.1998,-4.169 -7.0245,-8.1556 -4.4044,-13.9432 2.9021,-6.4102 9.1619,-9.2028 15.7503,-6.7052 6.3131,2.3933 9.178,8.4941 7.0842,15.0856 -1.7444,5.4912 -8.8916,8.8499 -15.1163,7.0621 -0.978,-0.281 -1.896,-0.7711 -3.3138,-1.4993 z"
   id="path18"
   inkscape:connector-curvature="0"
   style="opacity:1;fill:#162950;stroke:none;stroke-width:0.77772158;fill-opacity:1" />
<path
   d="m 137.3462,193.91061 c 0.127,4.78519 0.127,8.88404 0.127,13.31407 -5.2629,0 -10.0793,0 -15.2522,0 0,-4.96096 0,-9.75793 0,-15.73097 5.2116,0.60133 10.105,1.16597 15.1252,2.4169 z"
   id="path20"
   inkscape:connector-curvature="0"
   style="opacity:1;fill:#162950;stroke:none;stroke-width:0.77772158;fill-opacity:1" />
<path
   d="m 221.4883,196.67783 c 0,3.77895 0,6.8624 0,10.41304 -5.1118,0 -9.8975,0 -15.1607,0 0,-4.79791 0,-9.78836 0,-15.13771 4.196,0 8.0531,0.0484 11.9084,-0.0158 2.9091,-0.0484 3.3555,1.74294 3.2505,4.74043 z"
   id="path22"
   inkscape:connector-curvature="0"
   style="opacity:1;fill:#162950;stroke:none;stroke-width:0.77772158;fill-opacity:1" />
<path
   d="m 243.1704,207.55986 c -3.1961,0 -5.7458,0 -8.542,0 0,-5.26966 0,-9.86364 0,-15.04282 4.8993,0 9.6725,0 14.9234,0 0,4.54277 0,9.33731 0,14.67024 -1.7839,0.11587 -3.7596,0.24417 -6.3814,0.37258 z"
   id="path24"
   inkscape:connector-curvature="0"
   style="opacity:1;fill:#162950;stroke:none;stroke-width:0.77772158;fill-opacity:1" />
<path
   d="m 278.0096,196.82935 c 0,3.73063 0,6.80383 0,10.30258 -5.1178,0 -9.909,0 -15.1697,0 0,-4.77532 0,-9.50564 0,-14.72122 4.9122,0 9.6963,0 14.707,0 0.1508,1.23256 0.3054,2.49688 0.4614,4.41864 z"
   id="path26"
   inkscape:connector-curvature="0"
   style="opacity:1;fill:#162950;stroke:none;stroke-width:0.77772158;fill-opacity:1" />
<path
   d="m 362.8042,192.14066 c 4.7678,-0.16775 8.8887,-0.16775 13.6249,-0.16775 0,5.02975 0,9.78598 0,15.07941 -4.4658,0 -9.2505,0 -15.138,0 0.2789,-4.74816 0.5726,-9.74601 1.5131,-14.91166 z"
   id="path28"
   inkscape:connector-curvature="0"
   style="opacity:1;fill:#162950;stroke:none;stroke-width:0.77772158;fill-opacity:1" />
<path
   d="m 405.0367,203.51346 c 0.2394,2.90046 -0.6897,4.04184 -3.0001,4.02432 -3.8677,-0.0293 -7.736,-0.008 -12.117,-0.008 0,-5.14638 0,-10.15296 0,-15.38037 4.7878,0 9.3877,0 15.1188,0 0,3.68388 0,7.18719 0,11.36402 z"
   id="path30"
   inkscape:connector-curvature="0"
   style="opacity:1;fill:#162950;stroke:none;stroke-width:0.77772158;fill-opacity:1" />
<path
   d="m 417.404,198.13539 c 0.071,-2.18335 0.1422,-3.71625 0.2351,-5.71932 4.9463,0 9.6711,0 14.9019,0 0,4.86029 0,9.64989 0,14.79513 -4.7653,0 -9.5888,0 -15.1371,0 0,-2.87288 0,-5.64916 10e-5,-9.07581 z"
   id="path32"
   inkscape:connector-curvature="0"
   style="opacity:1;fill:#162950;stroke:none;stroke-width:0.77772158;fill-opacity:1" />
<path
   d="m 513.4979,191.93612 c 2.8982,-0.23805 4.0439,0.69199 4.0283,2.99919 -0.026,3.8664 -0.01,7.73307 -0.01,12.11184 -5.1475,0 -10.1528,0 -15.3807,0 0,-4.78443 0,-9.38198 0,-15.11302 3.6834,0 7.1851,0 11.3597,0.002 z"
   id="path34"
   inkscape:connector-curvature="0"
   style="opacity:1;fill:#162950;stroke:none;stroke-width:0.77772158;fill-opacity:1" />
<path
   d="m 539.9912,207.55986 c -3.4725,4e-5 -6.2945,4e-5 -9.5954,4e-5 0,-5.18278 0,-9.91039 0,-15.13656 4.8647,0 9.6497,0 14.8007,0 0,4.77313 0,9.59644 0,15.13647 -1.6089,0 -3.0819,0 -5.2053,5e-5 z"
   id="path36"
   inkscape:connector-curvature="0"
   style="opacity:1;fill:#162950;stroke:none;stroke-width:0.77772158;fill-opacity:1" />
<path
   d="m 93.8718,200.7199 c 0,-3.19424 0,-5.74229 0,-8.53747 5.2678,0 9.8594,0 15.0242,0 0,4.87719 0,9.6516 0,14.90758 -4.5376,0 -9.3289,0 -14.6532,0 -0.1151,-1.77508 -0.2431,-3.74952 -0.371,-6.37011 z"
   id="path38"
   inkscape:connector-curvature="0"
   style="opacity:1;fill:#162950;stroke:none;stroke-width:0.77772158;fill-opacity:1" />


























</svg>