<?xml version="1.0" encoding="UTF-8"?>
<svg width="700pt" height="700pt" version="1.1" viewBox="0 0 700 700" xmlns="http://www.w3.org/2000/svg">
 <path d="m74 369.39c0.0625 33.133 14.625 64.574 39.859 86.047 37.516 35.82 126 57.203 236.7 57.203 65.141 1.6172 130.04-8.4609 191.62-29.75 30.699-9.6719 56.215-31.289 70.801-59.977 14.59-28.691 17.02-62.047 6.7461-92.547-10.273-30.504-32.387-55.59-61.359-69.609-12.219-69.133-78.812-120.47-157.84-120.47-0.99609 0-1.9727 0.054688-2.9648 0.070313l-89.488-89.484c-2.25-2.25-5.3008-3.5156-8.4844-3.5156s-6.2344 1.2656-8.4844 3.5156l-213.59 213.59c-2.2656 2.2461-3.5391 5.3047-3.5469 8.4922-0.003906 3.1914 1.2617 6.25 3.5156 8.5078 2.2578 2.2539 5.3164 3.5195 8.5078 3.5156 3.1875-0.007813 6.2461-1.2812 8.4922-3.5469l43.266-43.266v28.895c-18.891 9.6875-34.797 24.324-46.023 42.344-11.227 18.023-17.355 38.75-17.727 59.98zm461.56-99.062c0.51953 4.168 3.1797 7.7617 7.0156 9.4766 24.59 10.129 43.875 30.008 53.254 54.895 9.3789 24.887 8.0156 52.547-3.7734 76.391-11.785 23.84-32.934 41.723-58.402 49.379-58.859 20.246-120.87 29.789-183.09 28.172-101.55 0-187.97-19.844-220.53-50.93-20.176-16.977-31.883-41.953-32.031-68.32 0.49609-29.672 15.301-57.277 39.75-74.102v75.414c0 6.6289 5.375 12 12 12h144.9c-5.9531 8.293-10.59 17.457-13.746 27.164-0.96875 3.0352-0.69141 6.332 0.77344 9.1641 1.4648 2.8281 3.9961 4.9609 7.0312 5.9219 3.0391 0.96094 6.332 0.67578 9.1602-0.79297s4.9531-4.0039 5.9102-7.043c5.9492-16.895 17.062-31.488 31.77-41.711s32.258-15.559 50.168-15.25c6.3359-0.003906 12.652 0.63281 18.859 1.9062 4.2969 0.89453 8.7383-0.63281 11.578-3.9844 25.805-29.152 62.508-46.344 101.42-47.508 3.1758-0.14844 6.1641-1.5508 8.3086-3.9023 2.1406-2.3516 3.2617-5.457 3.1133-8.6367-0.11719-1.0977-0.38672-2.1758-0.80078-3.1992 3.8086-1.4297 6.625-4.6992 7.4766-8.6797 0.84766-3.9766-0.39062-8.1133-3.2852-10.973l-109.07-109.07c58.277 8.9766 105.68 51.496 112.25 104.22zm-25.129 16.832c-16.781 1.3203-33.281 5.0547-48.996 11.086v-60.078zm-210.84-210.83 137.84 137.84v95.492-0.003906c-12.934 7.4844-24.707 16.809-34.953 27.684-5.5547-0.79297-11.156-1.1875-16.766-1.1875-24.383 0.042969-48.098 7.9492-67.629 22.547h-156.34v-144.53z"/>
</svg>
