<?xml version="1.0" encoding="UTF-8"?>
<svg width="700pt" height="700pt" version="1.1" viewBox="0 0 700 700" xmlns="http://www.w3.org/2000/svg" xmlns:xlink="http://www.w3.org/1999/xlink">
 <defs>
  <symbol id="s" overflow="visible">
   <path d="m28-1.6719c-1.4375 0.75-2.9453 1.3125-4.5156 1.6875-1.5625 0.38281-3.1953 0.57812-4.8906 0.57812-5.0742 0-9.0938-1.4141-12.062-4.25-2.9688-2.8438-4.4531-6.6914-4.4531-11.547 0-4.875 1.4844-8.7266 4.4531-11.562 2.9688-2.832 6.9883-4.25 12.062-4.25 1.6953 0 3.3281 0.19531 4.8906 0.57812 1.5703 0.375 3.0781 0.9375 4.5156 1.6875v6.2969c-1.4609-0.98828-2.8984-1.7109-4.3125-2.1719-1.4062-0.46875-2.8984-0.70312-4.4688-0.70312-2.8047 0-5.0078 0.90234-6.6094 2.7031-1.6055 1.793-2.4062 4.2656-2.4062 7.4219 0 3.1484 0.80078 5.6172 2.4062 7.4062 1.6016 1.793 3.8047 2.6875 6.6094 2.6875 1.5703 0 3.0625-0.22656 4.4688-0.6875 1.4141-0.45703 2.8516-1.1875 4.3125-2.1875z"/>
  </symbol>
  <symbol id="c" overflow="visible">
   <path d="m20.484-16.641c-0.63672-0.28906-1.2734-0.50781-1.9062-0.65625-0.625-0.14453-1.2617-0.21875-1.9062-0.21875-1.875 0-3.3242 0.60547-4.3438 1.8125-1.0117 1.2109-1.5156 2.9336-1.5156 5.1719v10.531h-7.2969v-22.859h7.2969v3.75c0.9375-1.4883 2.0156-2.5781 3.2344-3.2656s2.6758-1.0312 4.375-1.0312c0.25 0 0.51562 0.011719 0.79688 0.03125 0.28906 0.023438 0.70703 0.0625 1.25 0.125z"/>
  </symbol>
  <symbol id="b" overflow="visible">
   <path d="m26.328-11.484v2.0781h-17.078c0.17578 1.7109 0.78906 2.9961 1.8438 3.8594 1.0625 0.85547 2.5469 1.2812 4.4531 1.2812 1.5391 0 3.1133-0.22266 4.7188-0.67188 1.6133-0.45703 3.2734-1.1484 4.9844-2.0781v5.625c-1.7305 0.65625-3.4609 1.1523-5.1875 1.4844-1.7305 0.33203-3.4609 0.5-5.1875 0.5-4.1367 0-7.3516-1.0508-9.6406-3.1562-2.293-2.1016-3.4375-5.0508-3.4375-8.8438 0-3.7266 1.125-6.6602 3.375-8.7969 2.25-2.1328 5.3477-3.2031 9.2969-3.2031 3.5938 0 6.4688 1.0859 8.625 3.25 2.1562 2.1562 3.2344 5.0469 3.2344 8.6719zm-7.5156-2.4375c0-1.3828-0.40625-2.5-1.2188-3.3438-0.80469-0.85156-1.8594-1.2812-3.1719-1.2812-1.4062 0-2.5547 0.40234-3.4375 1.2031-0.88672 0.79297-1.4375 1.9336-1.6562 3.4219z"/>
  </symbol>
  <symbol id="j" overflow="visible">
   <path d="m13.75-10.281c-1.5234 0-2.668 0.26172-3.4375 0.78125-0.77344 0.51172-1.1562 1.2734-1.1562 2.2812 0 0.91797 0.30469 1.6406 0.92188 2.1719 0.625 0.52344 1.4883 0.78125 2.5938 0.78125 1.375 0 2.5312-0.48828 3.4688-1.4688 0.9375-0.98828 1.4062-2.2266 1.4062-3.7188v-0.82812zm11.172-2.7656v13.047h-7.375v-3.3906c-0.98047 1.3867-2.0859 2.3984-3.3125 3.0312-1.2188 0.63281-2.7031 0.95312-4.4531 0.95312-2.375 0-4.3047-0.6875-5.7812-2.0625-1.4688-1.3828-2.2031-3.1797-2.2031-5.3906 0-2.6758 0.92188-4.6406 2.7656-5.8906 1.8438-1.2578 4.7383-1.8906 8.6875-1.8906h4.2969v-0.5625c0-1.1562-0.46094-2-1.375-2.5312-0.90625-0.53906-2.3242-0.8125-4.25-0.8125-1.5625 0-3.0234 0.15625-4.375 0.46875-1.3438 0.3125-2.5938 0.78125-3.75 1.4062v-5.5781c1.5625-0.375 3.1289-0.66016 4.7031-0.85938 1.582-0.19531 3.1641-0.29688 4.75-0.29688 4.1133 0 7.0859 0.8125 8.9219 2.4375 1.832 1.625 2.75 4.2656 2.75 7.9219z"/>
  </symbol>
  <symbol id="a" overflow="visible">
   <path d="m11.484-29.344v6.4844h7.5312v5.2188h-7.5312v9.7031c0 1.0625 0.20703 1.7812 0.625 2.1562 0.42578 0.375 1.2695 0.5625 2.5312 0.5625h3.75v5.2188h-6.2656c-2.8867 0-4.9336-0.59766-6.1406-1.7969-1.1992-1.207-1.7969-3.2539-1.7969-6.1406v-9.7031h-3.6406v-5.2188h3.6406v-6.4844z"/>
  </symbol>
  <symbol id="i" overflow="visible">
   <path d="m19.062-19.516v-12.234h7.3438v31.75h-7.3438v-3.3125c-1.0117 1.3555-2.1211 2.3438-3.3281 2.9688-1.2109 0.625-2.6094 0.9375-4.2031 0.9375-2.8125 0-5.125-1.1172-6.9375-3.3594-1.8125-2.2383-2.7188-5.1172-2.7188-8.6406 0-3.5195 0.90625-6.3984 2.7188-8.6406 1.8125-2.2383 4.125-3.3594 6.9375-3.3594 1.5703 0 2.9688 0.32031 4.1875 0.95312 1.2188 0.625 2.332 1.6055 3.3438 2.9375zm-4.8125 14.797c1.5625 0 2.7539-0.56641 3.5781-1.7031 0.82031-1.1445 1.2344-2.8047 1.2344-4.9844 0-2.1758-0.41406-3.8359-1.2344-4.9844-0.82422-1.1445-2.0156-1.7188-3.5781-1.7188-1.5547 0-2.7422 0.57422-3.5625 1.7188-0.82422 1.1484-1.2344 2.8086-1.2344 4.9844 0 2.1797 0.41016 3.8398 1.2344 4.9844 0.82031 1.1367 2.0078 1.7031 3.5625 1.7031z"/>
  </symbol>
  <symbol id="h" overflow="visible">
   <path d="m15.672-4.7188c1.5625 0 2.7539-0.56641 3.5781-1.7031 0.82031-1.1445 1.2344-2.8047 1.2344-4.9844 0-2.1758-0.41406-3.8359-1.2344-4.9844-0.82422-1.1445-2.0156-1.7188-3.5781-1.7188s-2.7656 0.57812-3.6094 1.7344c-0.83594 1.1484-1.25 2.8047-1.25 4.9688 0 2.168 0.41406 3.8242 1.25 4.9688 0.84375 1.1484 2.0469 1.7188 3.6094 1.7188zm-4.8594-14.797c1.0078-1.332 2.125-2.3125 3.3438-2.9375 1.2266-0.63281 2.6406-0.95312 4.2344-0.95312 2.8125 0 5.125 1.1211 6.9375 3.3594 1.8125 2.2422 2.7188 5.1211 2.7188 8.6406 0 3.5234-0.90625 6.4023-2.7188 8.6406-1.8125 2.2422-4.125 3.3594-6.9375 3.3594-1.5938 0-3.0078-0.32031-4.2344-0.95312-1.2188-0.63281-2.3359-1.6172-3.3438-2.9531v3.3125h-7.2969v-31.75h7.2969z"/>
  </symbol>
  <symbol id="g" overflow="visible">
   <path d="m0.51562-22.859h7.2969l6.1406 15.516 5.2344-15.516h7.2969l-9.6094 25.016c-0.96875 2.5508-2.0938 4.332-3.375 5.3438-1.2812 1.0078-2.9805 1.5156-5.0938 1.5156h-4.2188v-4.7969h2.2812c1.2383 0 2.1406-0.19922 2.7031-0.59375 0.5625-0.38672 1-1.0898 1.3125-2.1094l0.20312-0.64062z"/>
  </symbol>
  <symbol id="f" overflow="visible">
   <path d="m0.20312-30.469h7.9062l8.0781 22.484 8.0625-22.484h7.8906l-11.281 30.469h-9.375z"/>
  </symbol>
  <symbol id="r" overflow="visible">
   <path d="m21.984-22.141v5.9531c-1-0.67578-2-1.1758-3-1.5-1-0.33203-2.0391-0.5-3.1094-0.5-2.043 0-3.6328 0.60156-4.7656 1.7969-1.1367 1.1875-1.7031 2.8516-1.7031 4.9844 0 2.1367 0.56641 3.8047 1.7031 5 1.1328 1.1875 2.7227 1.7812 4.7656 1.7812 1.1445 0 2.2266-0.17188 3.25-0.51562 1.0312-0.34375 1.9844-0.84766 2.8594-1.5156v5.9844c-1.1484 0.41797-2.3086 0.72656-3.4844 0.9375-1.1797 0.21875-2.3594 0.32812-3.5469 0.32812-4.1172 0-7.3398-1.0547-9.6719-3.1719-2.3242-2.1133-3.4844-5.0547-3.4844-8.8281 0-3.7695 1.1602-6.7109 3.4844-8.8281 2.332-2.1133 5.5547-3.1719 9.6719-3.1719 1.1953 0 2.3789 0.10547 3.5469 0.3125 1.1641 0.21094 2.3281 0.52734 3.4844 0.95312z"/>
  </symbol>
  <symbol id="e" overflow="visible">
   <path d="m14.391-18.188c-1.625 0-2.8672 0.58594-3.7188 1.75-0.84375 1.168-1.2656 2.8438-1.2656 5.0312s0.42188 3.8672 1.2656 5.0312c0.85156 1.168 2.0938 1.75 3.7188 1.75 1.5938 0 2.8125-0.58203 3.6562-1.75 0.84375-1.1641 1.2656-2.8438 1.2656-5.0312s-0.42188-3.8633-1.2656-5.0312c-0.84375-1.1641-2.0625-1.75-3.6562-1.75zm0-5.2188c3.9258 0 6.9922 1.0625 9.2031 3.1875 2.2188 2.1172 3.3281 5.0547 3.3281 8.8125 0 3.75-1.1094 6.6875-3.3281 8.8125-2.2109 2.125-5.2773 3.1875-9.2031 3.1875-3.9492 0-7.0391-1.0625-9.2656-3.1875-2.2188-2.125-3.3281-5.0625-3.3281-8.8125 0-3.7578 1.1094-6.6953 3.3281-8.8125 2.2266-2.125 5.3164-3.1875 9.2656-3.1875z"/>
  </symbol>
  <symbol id="q" overflow="visible">
   <path d="m21.375-22.141v5.5469c-1.5742-0.65625-3.0898-1.1445-4.5469-1.4688-1.4492-0.32031-2.8203-0.48438-4.1094-0.48438-1.3867 0-2.418 0.17188-3.0938 0.51562-0.67969 0.34375-1.0156 0.88281-1.0156 1.6094 0 0.58594 0.25391 1.0312 0.76562 1.3438 0.50781 0.3125 1.4258 0.54297 2.75 0.6875l1.2812 0.1875c3.7383 0.48047 6.2539 1.2656 7.5469 2.3594 1.3008 1.0859 1.9531 2.7891 1.9531 5.1094 0 2.4375-0.90234 4.2734-2.7031 5.5-1.793 1.2188-4.4766 1.8281-8.0469 1.8281-1.5117 0-3.0742-0.12109-4.6875-0.35938-1.6055-0.23828-3.2578-0.59766-4.9531-1.0781v-5.5469c1.4453 0.71094 2.9375 1.2422 4.4688 1.5938 1.5312 0.35547 3.0859 0.53125 4.6719 0.53125 1.4258 0 2.5-0.19531 3.2188-0.59375 0.71875-0.39453 1.0781-0.97656 1.0781-1.75 0-0.65625-0.25-1.1406-0.75-1.4531-0.49219-0.32031-1.4766-0.57031-2.9531-0.75l-1.2969-0.17188c-3.25-0.40625-5.5312-1.1562-6.8438-2.25-1.3047-1.1016-1.9531-2.7812-1.9531-5.0312 0-2.4141 0.82812-4.207 2.4844-5.375 1.6641-1.1758 4.2109-1.7656 7.6406-1.7656 1.3516 0 2.7695 0.10547 4.25 0.3125 1.4766 0.19922 3.0938 0.51562 4.8438 0.95312z"/>
  </symbol>
  <symbol id="d" overflow="visible">
   <path d="m3.8438-30.469h13.031c3.875 0 6.8477 0.85938 8.9219 2.5781 2.082 1.7188 3.125 4.1719 3.125 7.3594 0 3.1992-1.043 5.6562-3.125 7.375-2.0742 1.7188-5.0469 2.5781-8.9219 2.5781h-5.1875v10.578h-7.8438zm7.8438 5.6875v8.5156h4.3594c1.5195 0 2.6914-0.36719 3.5156-1.1094 0.83203-0.73828 1.25-1.7891 1.25-3.1562 0-1.3633-0.41797-2.4102-1.25-3.1406-0.82422-0.73828-1.9961-1.1094-3.5156-1.1094z"/>
  </symbol>
  <symbol id="p" overflow="visible">
   <path d="m3.5156-22.859h7.2969v22.859h-7.2969zm0-8.8906h7.2969v5.9531h-7.2969z"/>
  </symbol>
  <symbol id="o" overflow="visible">
   <path d="m26.484-13.922v13.922h-7.3438v-10.656c0-1.9688-0.046875-3.3281-0.14062-4.0781-0.085938-0.75-0.23438-1.3008-0.45312-1.6562-0.28125-0.47656-0.66797-0.84766-1.1562-1.1094-0.49219-0.25781-1.0469-0.39062-1.6719-0.39062-1.5312 0-2.7344 0.58984-3.6094 1.7656-0.86719 1.168-1.2969 2.793-1.2969 4.875v11.25h-7.2969v-22.859h7.2969v3.3438c1.1016-1.332 2.2734-2.3125 3.5156-2.9375 1.2383-0.63281 2.6016-0.95312 4.0938-0.95312 2.6445 0 4.6484 0.8125 6.0156 2.4375 1.3633 1.6172 2.0469 3.9648 2.0469 7.0469z"/>
  </symbol>
  <symbol id="n" overflow="visible">
   <path d="m18.547-31.75v4.7969h-4.0312c-1.043 0-1.7656 0.1875-2.1719 0.5625-0.40625 0.36719-0.60938 1.0117-0.60938 1.9375v1.5938h6.25v5.2188h-6.25v17.641h-7.3125v-17.641h-3.625v-5.2188h3.625v-1.5938c0-2.4883 0.69141-4.3281 2.0781-5.5156 1.3945-1.1875 3.5469-1.7812 6.4531-1.7812z"/>
  </symbol>
  <symbol id="m" overflow="visible">
   <path d="m26.484-13.922v13.922h-7.3438v-10.609c0-2-0.046875-3.375-0.14062-4.125-0.085938-0.75-0.23438-1.3008-0.45312-1.6562-0.28125-0.47656-0.66797-0.84766-1.1562-1.1094-0.49219-0.25781-1.0469-0.39062-1.6719-0.39062-1.5312 0-2.7344 0.58984-3.6094 1.7656-0.86719 1.168-1.2969 2.793-1.2969 4.875v11.25h-7.2969v-31.75h7.2969v12.234c1.1016-1.332 2.2734-2.3125 3.5156-2.9375 1.2383-0.63281 2.6016-0.95312 4.0938-0.95312 2.6445 0 4.6484 0.8125 6.0156 2.4375 1.3633 1.6172 2.0469 3.9648 2.0469 7.0469z"/>
  </symbol>
  <symbol id="l" overflow="visible">
   <path d="m3.8438-30.469h8.7656l11.078 20.891v-20.891h7.4531v30.469h-8.7656l-11.094-20.906v20.906h-7.4375z"/>
  </symbol>
  <symbol id="k" overflow="visible">
   <path d="m3.5156-22.859h7.2969v22.453c0 3.0625-0.73438 5.3945-2.2031 7-1.4688 1.6133-3.6016 2.4219-6.3906 2.4219h-3.6094v-4.7969h1.2656c1.3828 0 2.3359-0.3125 2.8594-0.9375 0.51953-0.625 0.78125-1.8555 0.78125-3.6875zm0-8.8906h7.2969v5.9531h-7.2969z"/>
  </symbol>
 </defs>
 <g>
  <path d="m310.74 358.9c-8.8438 0-16.039 7.1953-16.039 16.039 0 8.9336 7.1953 16.199 16.039 16.199 8.8828 0 16.117-7.2656 16.117-16.199 0-8.8438-7.2305-16.039-16.117-16.039zm0 23.879c-4.2344 0-7.6797-3.5195-7.6797-7.8398 0-4.2344 3.4453-7.6797 7.6797-7.6797 4.2773 0 7.7578 3.4453 7.7578 7.6797 0 4.3984-3.4062 7.8398-7.7578 7.8398z"/>
  <path d="m381.32 220.12c0.625 10.09 8.9453 18.129 19.188 18.129 10.555 0 19.141-8.6602 19.141-19.309 0-4.7773-1.8359-9.332-4.9883-12.844l23.586-32.898 3.0586 15.293 8.1953-1.6406-5.7656-28.844-28.785 5.7812 1.6484 8.1953 14.297-2.8711-23.113 32.234c-2.2969-0.96484-4.707-1.6328-7.2734-1.6328-8.1133 0-15.105 4.9961-17.891 12.148l-23.211-3.3242c-1.1484-9.5078-9.1758-16.926-18.988-16.926-10.555 0-19.141 8.625-19.141 19.223 0 4.3711 1.4609 8.5312 4.0586 11.867l-26.406 30.914c-2.8672-1.6445-6.1094-2.5781-9.4961-2.5781-7.5977 0-14.34 4.5977-17.363 11.25l-20.754-4.5742c-0.003906-10.641-8.625-19.301-19.223-19.301s-19.223 8.6641-19.223 19.312c0 3.5781 1.0273 7.0664 2.8281 10.062l-17.797 17.219c-3.1914-2.3398-7.0898-3.7695-11.34-3.7695-10.574 0-19.176 8.6406-19.176 19.258 0 10.668 8.6016 19.344 19.176 19.344 10.625 0 19.262-8.6758 19.262-19.344 0-3.3359-0.92969-6.4336-2.4297-9.1719l18.082-17.496c3.125 2.0664 6.7695 3.2031 10.613 3.2031 7.6367 0 14.418-4.6211 17.383-11.16l20.84 4.5898c0.10547 10.551 8.6289 19.109 19.117 19.109 10.602 0 19.227-8.6602 19.227-19.305 0-3.9883-1.2617-7.8555-3.5156-11.055l26.645-31.191c2.6211 1.3516 5.5586 2.125 8.6289 2.125 8.4062 0 15.66-5.5664 18.156-13.277zm19.188-12.047c6.1172 0 10.781 5.1172 10.781 10.867 0 6.0352-4.8359 10.949-10.781 10.949-14.457 0-14.555-21.816 0-21.816zm-213.95 103.41c-5.9648 0-10.82-4.9297-10.82-10.988 0-6.0117 4.8516-10.902 10.82-10.902 6.0117 0 10.906 4.8906 10.906 10.902 0 6.0586-4.8945 10.988-10.906 10.988zm45.527-42.812c-5.9141 0-10.863-4.6562-10.863-10.945 0-6.0391 4.8711-10.953 10.863-10.953s10.863 4.9141 10.863 10.953c0.003907 5.8828-4.8008 10.945-10.863 10.945zm57.336 12.539c-7.1211 0-12.066-6.9258-10.535-13.191 1.0352-4.9961 5.4688-8.625 10.535-8.625 5.8633 0 10.867 4.7617 10.867 10.867 0.003906 6.0391-4.875 10.949-10.867 10.949zm50.988-59.426c-6.2539 0-10.781-5.2891-10.781-10.949 0-5.9922 4.8359-10.863 10.781-10.863 5.9922 0 10.863 4.8711 10.992 10.676-0.40234 0.83594-0.74219 11.137-10.992 11.137z"/>
  <path d="m203.73 179.69-26.973-26.973 26.977-27.012-5.918-5.9102-32.875 32.922 32.879 32.883z"/>
  <path d="m247.13 179.69 5.9102 5.9102 32.883-32.883-32.879-32.922-5.918 5.9102 26.977 27.012z"/>
  <path d="m231.88 108.23 8.0469 2.2617-24.352 86.676-8.0469-2.2617z"/>
  <path d="m367.9 289.21h106.79v8.3594h-106.79z"/>
  <path d="m378.61 265.27h96.082v8.3594h-96.082z"/>
  <path d="m588.81 396.36c-1.3633-4.9609-3.1797-9.7852-5.4258-14.402l17.691-17.867-36.438-36.234-16.68 16.875c-3.6367-1.9766-7.3711-3.5977-11.211-5.0391l0.003906-272.88c0-20.367-16.609-36.941-37.027-36.941l-377.54-0.003906c-20.367 0-36.941 16.574-36.941 36.941-0.027344 31.469 0.089844-113.99-0.25781 307.75 0 15.93 13.406 29.508 29.508 29.508h152.04l-3.5977 35.23h-0.56641c-21.664 0-39.285 15.848-39.285 35.328v4.1797h175.31v-4.1797c0-19.48-17.621-35.328-39.285-35.328h-0.53516l-3.6016-35.23h44.543l0.25781 44.645 27.957-0.085938c1.5742 4.1836 3.4375 8.1875 5.5625 11.957l-19.961 20.352 36.527 36.027 21.035-21.379c3.5586 1.6992 7.2539 3.1406 11.035 4.3164l0.17578 30.223 51.234-0.19922-0.17578-30.309c3.9453-1.25 7.6055-2.7148 11.078-4.4297l21.363 21.188 36.035-36.438-20.156-20.16c2.1094-3.8828 3.8945-7.8789 5.3984-12.098l28.113-0.085938-0.29688-51.418zm-107.75-58.004c-5.2812 1.6953-10.461 3.9805-15.445 6.8242l-16.832-16.652-17.133 17.371h-304.62v-274.23h367.93v243.33l-14.074 0.085937zm-387.46-271.54c0-15.762 12.824-28.586 28.586-28.586h377.54c15.809 0 28.672 12.824 28.672 28.586v247.98l-25.074 0.14844-0.003907-251.64h-384.64v282.59h-25.074zm296.07 403.63h-157.86c2.3047-12.863 15.078-22.734 30.453-22.781h96.949c15.379 0.046876 28.148 9.918 30.453 22.781zm-39.492-31.148h-78.836l3.5977-35.23h71.637zm-82.789-43.586h-152.9c-1.3633 0-2.6875-0.15625-3.9805-0.40234l0.003906-0.023438c-9.793-2.0156-16.91-10.742-16.91-20.746v-20.289h329.79l-10.75 10.898 17.883 17.703c-1.7969 3.8125-3.625 8.6016-4.8359 12.855h-71.574zm313.44 43.637c-2.1719 4.9219 1.6445 0.41797-9.8008 21.797l18.832 18.836-24.309 24.578-19.809-19.648c-5.2344 2.1484 1.5156 1.168-20.965 8.4375l0.16016 28.258-34.52 0.13281-0.16406-28.188c-5.5781-2.1367 0.39844 1.8789-21.012-8.1992l-19.473 19.789-24.648-24.316 18.703-18.984c-2.7344-5.7344-0.96094 2.0898-10.152-21.586l-25.586 0.078125-0.19922-34.617 20.648-0.14453 3.8828-1.2227 0.57031-3.4805c2.625-10.926 6.9688-17.984 7.7422-19.676l-16.258-16.105c0.82422-0.83594 25.215-25.559 24.391-24.723l15.27 15.16 2.4219-1.2695h0.16406c12.727-5.6133 5.3672-4.2031 22.754-9.6094l-0.16016-21.254 34.586-0.20312 0.078125 21.215c4.4766 1.8594 4.3672-0.51172 25.25 10.719l15.469-15.422 24.578 24.445-16.117 16.277c1.918 5.0234 1.9727-0.54297 9.0938 24.344l24.156-0.16016 0.19922 34.668z"/>
  <path d="m451.91 422.72c0.28125 30.383 25.141 55.102 55.414 55.102h0.26953c30.086-0.1875 54.98-24.305 54.98-55.719 0-71.965-110.66-73.98-110.66 0.61719zm55.641 46.738h-0.22266c-25.707 0-46.82-21-47.055-46.777 0-63.223 93.949-62.027 93.949-0.58203-0.003906 26.848-21.234 47.203-46.672 47.359z"/>
  <use x="70" y="685.375" xlink:href="#s"/>
  <use x="100.667969" y="685.375" xlink:href="#c"/>
  <use x="121.28125" y="685.375" xlink:href="#b"/>
  <use x="149.625" y="685.375" xlink:href="#j"/>
  <use x="177.824219" y="685.375" xlink:href="#a"/>
  <use x="197.800781" y="685.375" xlink:href="#b"/>
  <use x="226.144531" y="685.375" xlink:href="#i"/>
  <use x="270.609375" y="685.375" xlink:href="#h"/>
  <use x="300.523438" y="685.375" xlink:href="#g"/>
  <use x="342.316406" y="685.375" xlink:href="#f"/>
  <use x="374.660156" y="685.375" xlink:href="#b"/>
  <use x="403.003906" y="685.375" xlink:href="#r"/>
  <use x="427.773438" y="685.375" xlink:href="#a"/>
  <use x="447.75" y="685.375" xlink:href="#e"/>
  <use x="476.460938" y="685.375" xlink:href="#c"/>
  <use x="497.074219" y="685.375" xlink:href="#q"/>
  <use x="536.496094" y="685.375" xlink:href="#d"/>
  <use x="567.125" y="685.375" xlink:href="#e"/>
  <use x="595.835938" y="685.375" xlink:href="#p"/>
  <use x="610.160156" y="685.375" xlink:href="#o"/>
  <use x="639.914062" y="685.375" xlink:href="#a"/>
  <use x="70" y="727.164063" xlink:href="#n"/>
  <use x="195.597656" y="727.164063" xlink:href="#a"/>
  <use x="215.574219" y="727.164063" xlink:href="#m"/>
  <use x="288.21875" y="727.164063" xlink:href="#l"/>
  <use x="425.957031" y="727.164063" xlink:href="#d"/>
  <use x="505.910156" y="727.164063" xlink:href="#k"/>
  <use x="573.347656" y="727.164063" xlink:href="#a"/>
 </g>
</svg>
