<?xml version="1.0" encoding="UTF-8"?>
<svg width="700pt" height="700pt" version="1.1" viewBox="0 0 700 700" xmlns="http://www.w3.org/2000/svg" xmlns:xlink="http://www.w3.org/1999/xlink">
 <defs>
  <symbol id="u" overflow="visible">
   <path d="m23.219-1.3906c-1.1992 0.625-2.4492 1.0938-3.75 1.4062-1.293 0.3125-2.6406 0.46875-4.0469 0.46875-4.2109 0-7.5469-1.1719-10.016-3.5156-2.4609-2.3516-3.6875-5.5469-3.6875-9.5781 0-4.0391 1.2266-7.2344 3.6875-9.5781 2.4688-2.3516 5.8047-3.5312 10.016-3.5312 1.4062 0 2.7539 0.15625 4.0469 0.46875 1.3008 0.3125 2.5508 0.78125 3.75 1.4062v5.2344c-1.2109-0.82031-2.4023-1.4258-3.5781-1.8125-1.168-0.38281-2.4023-0.57812-3.7031-0.57812-2.3242 0-4.1523 0.74609-5.4844 2.2344-1.3242 1.4922-1.9844 3.543-1.9844 6.1562 0 2.6055 0.66016 4.6523 1.9844 6.1406 1.332 1.4922 3.1602 2.2344 5.4844 2.2344 1.3008 0 2.5352-0.1875 3.7031-0.5625 1.1758-0.38281 2.3672-0.98828 3.5781-1.8125z"/>
  </symbol>
  <symbol id="c" overflow="visible">
   <path d="m16.984-13.797c-0.53125-0.23828-1.0586-0.41406-1.5781-0.53125-0.52344-0.125-1.0469-0.1875-1.5781-0.1875-1.5625 0-2.7656 0.5-3.6094 1.5-0.83594 0.99219-1.25 2.418-1.25 4.2812v8.7344h-6.0625v-18.953h6.0625v3.1094c0.78125-1.2383 1.6758-2.1406 2.6875-2.7031 1.0078-0.57031 2.2188-0.85938 3.625-0.85938 0.19531 0 0.41406 0.011719 0.65625 0.03125 0.23828 0.011719 0.58203 0.042969 1.0312 0.09375z"/>
  </symbol>
  <symbol id="a" overflow="visible">
   <path d="m21.828-9.5312v1.7344h-14.156c0.14453 1.418 0.65625 2.4844 1.5312 3.2031 0.88281 0.71094 2.1133 1.0625 3.6875 1.0625 1.2812 0 2.5859-0.1875 3.9219-0.5625 1.332-0.38281 2.707-0.96094 4.125-1.7344v4.6719c-1.4375 0.54297-2.875 0.94922-4.3125 1.2188-1.4297 0.28125-2.8555 0.42188-4.2812 0.42188-3.4375 0-6.1094-0.86719-8.0156-2.6094-1.8984-1.7383-2.8438-4.1797-2.8438-7.3281 0-3.0938 0.92969-5.5234 2.7969-7.2969 1.875-1.7695 4.4453-2.6562 7.7188-2.6562 2.9766 0 5.3594 0.89844 7.1406 2.6875 1.7891 1.793 2.6875 4.1875 2.6875 7.1875zm-6.2188-2.0156c0-1.1445-0.33984-2.0664-1.0156-2.7656-0.66797-0.70703-1.543-1.0625-2.625-1.0625-1.1797 0-2.1367 0.32812-2.875 0.98438-0.73047 0.65625-1.1836 1.6055-1.3594 2.8438z"/>
  </symbol>
  <symbol id="e" overflow="visible">
   <path d="m11.406-8.5312c-1.2617 0-2.2148 0.21484-2.8594 0.64062-0.63672 0.42969-0.95312 1.0625-0.95312 1.9062 0 0.76172 0.25391 1.3594 0.76562 1.7969 0.51953 0.4375 1.2383 0.65625 2.1562 0.65625 1.1328 0 2.0859-0.40625 2.8594-1.2188 0.78125-0.82031 1.1719-1.8477 1.1719-3.0781v-0.70312zm9.25-2.2812v10.812h-6.1094v-2.8125c-0.8125 1.1562-1.7305 1.9961-2.75 2.5156-1.0117 0.51953-2.2422 0.78125-3.6875 0.78125-1.9688 0-3.5703-0.56641-4.7969-1.7031-1.2188-1.1445-1.8281-2.6328-1.8281-4.4688 0-2.2188 0.76562-3.8477 2.2969-4.8906 1.5312-1.0391 3.9297-1.5625 7.2031-1.5625h3.5625v-0.46875c0-0.95703-0.38281-1.6562-1.1406-2.0938-0.75-0.44531-1.9297-0.67188-3.5312-0.67188-1.293 0-2.5 0.13281-3.625 0.39062-1.1172 0.25-2.1523 0.63672-3.1094 1.1562v-4.6094c1.3008-0.32031 2.6016-0.5625 3.9062-0.71875 1.3125-0.16406 2.625-0.25 3.9375-0.25 3.4141 0 5.8789 0.67969 7.3906 2.0312 1.5195 1.3438 2.2812 3.5312 2.2812 6.5625z"/>
  </symbol>
  <symbol id="b" overflow="visible">
   <path d="m9.5312-24.328v5.375h6.2344v4.3281h-6.2344v8.0469c0 0.875 0.17188 1.4688 0.51562 1.7812 0.35156 0.3125 1.0508 0.46875 2.0938 0.46875h3.1094v4.3281h-5.2031c-2.3867 0-4.0781-0.5-5.0781-1.5s-1.5-2.6914-1.5-5.0781v-8.0469h-3.0156v-4.3281h3.0156v-5.375z"/>
  </symbol>
  <symbol id="k" overflow="visible">
   <path d="m15.812-16.172v-10.156h6.0781v26.328h-6.0781v-2.7344c-0.84375 1.1172-1.7656 1.9336-2.7656 2.4531-1 0.50781-2.1641 0.76562-3.4844 0.76562-2.3359 0-4.25-0.92578-5.75-2.7812-1.5-1.8516-2.25-4.2383-2.25-7.1562 0-2.9258 0.75-5.3164 2.25-7.1719 1.5-1.8516 3.4141-2.7812 5.75-2.7812 1.3125 0 2.4688 0.26562 3.4688 0.79688 1.0078 0.52344 1.9375 1.3359 2.7812 2.4375zm-4 12.266c1.2891 0 2.2812-0.47266 2.9688-1.4219 0.6875-0.94531 1.0312-2.3203 1.0312-4.125 0-1.8125-0.34375-3.1914-1.0312-4.1406-0.6875-0.94531-1.6797-1.4219-2.9688-1.4219-1.293 0-2.2812 0.47656-2.9688 1.4219-0.67969 0.94922-1.0156 2.3281-1.0156 4.1406 0 1.8047 0.33594 3.1797 1.0156 4.125 0.6875 0.94922 1.6758 1.4219 2.9688 1.4219z"/>
  </symbol>
  <symbol id="j" overflow="visible">
   <path d="m13-3.9062c1.2891 0 2.2734-0.47266 2.9531-1.4219 0.6875-0.94531 1.0312-2.3203 1.0312-4.125 0-1.8125-0.34375-3.1914-1.0312-4.1406-0.67969-0.94531-1.6641-1.4219-2.9531-1.4219-1.3047 0-2.3047 0.48047-3 1.4375-0.6875 0.94922-1.0312 2.3242-1.0312 4.125 0 1.793 0.34375 3.168 1.0312 4.125 0.69531 0.94922 1.6953 1.4219 3 1.4219zm-4.0312-12.266c0.83203-1.1016 1.7539-1.9141 2.7656-2.4375 1.0195-0.53125 2.1914-0.79688 3.5156-0.79688 2.332 0 4.25 0.92969 5.75 2.7812 1.5 1.8555 2.25 4.2461 2.25 7.1719 0 2.918-0.75 5.3047-2.25 7.1562-1.5 1.8555-3.418 2.7812-5.75 2.7812-1.3242 0-2.4961-0.26172-3.5156-0.78125-1.0117-0.51953-1.9336-1.332-2.7656-2.4375v2.7344h-6.0625v-26.328h6.0625z"/>
  </symbol>
  <symbol id="i" overflow="visible">
   <path d="m0.42188-18.953h6.0625l5.0938 12.859 4.3281-12.859h6.0625l-7.9688 20.75c-0.80469 2.1016-1.7422 3.5781-2.8125 4.4219-1.0625 0.84375-2.4688 1.2656-4.2188 1.2656h-3.5v-3.9844h1.8906c1.0312 0 1.7812-0.16797 2.25-0.5 0.46875-0.32422 0.83203-0.90625 1.0938-1.75l0.15625-0.51562z"/>
  </symbol>
  <symbol id="h" overflow="visible">
   <path d="m18.516-4.6094h-10.188l-1.6094 4.6094h-6.5469l9.3594-25.266h7.7656l9.3594 25.266h-6.5469zm-8.5625-4.6875h6.9219l-3.4531-10.047z"/>
  </symbol>
  <symbol id="t" overflow="visible">
   <path d="m11.812-15.016c-1.293 0-2.2812 0.47656-2.9688 1.4219-0.67969 0.94922-1.0156 2.3281-1.0156 4.1406 0 1.8047 0.33594 3.1797 1.0156 4.125 0.6875 0.94922 1.6758 1.4219 2.9688 1.4219 1.2891 0 2.2812-0.47266 2.9688-1.4219 0.6875-0.94531 1.0312-2.3203 1.0312-4.125 0-1.8125-0.34375-3.1914-1.0312-4.1406-0.6875-0.94531-1.6797-1.4219-2.9688-1.4219zm4 12.281c-0.84375 1.1172-1.7656 1.9336-2.7656 2.4531-1 0.50781-2.1641 0.76562-3.4844 0.76562-2.3359 0-4.25-0.92578-5.75-2.7812-1.5-1.8516-2.25-4.2383-2.25-7.1562 0-2.9258 0.75-5.3125 2.25-7.1562s3.4141-2.7656 5.75-2.7656c1.3203 0 2.4844 0.26172 3.4844 0.78125 1 0.52344 1.9219 1.3398 2.7656 2.4531v-2.8125h6.0781v26.156h-6.0781z"/>
  </symbol>
  <symbol id="g" overflow="visible">
   <path d="m2.7031-7.375v-11.578h6.0938v1.8906c0 1.0312-0.007813 2.3242-0.015625 3.875-0.011719 1.5547-0.015625 2.5898-0.015625 3.1094 0 1.5234 0.035156 2.6211 0.10938 3.2969 0.082031 0.66797 0.22266 1.1523 0.42188 1.4531 0.23828 0.39844 0.55469 0.70312 0.95312 0.92188 0.40625 0.21094 0.86719 0.3125 1.3906 0.3125 1.2578 0 2.25-0.48438 2.9688-1.4531 0.72656-0.96875 1.0938-2.3164 1.0938-4.0469v-9.3594h6.0625v18.953h-6.0625v-2.7344c-0.91797 1.1055-1.8867 1.918-2.9062 2.4375-1.0234 0.51953-2.1484 0.78125-3.375 0.78125-2.1875 0-3.8555-0.66406-5-2-1.1484-1.3438-1.7188-3.2969-1.7188-5.8594z"/>
  </symbol>
  <symbol id="s" overflow="visible">
   <path d="m17.719-18.359v4.6094c-1.3047-0.53906-2.5586-0.94531-3.7656-1.2188-1.1992-0.26953-2.3359-0.40625-3.4062-0.40625-1.1562 0-2.0156 0.14844-2.5781 0.4375-0.55469 0.28125-0.82812 0.71875-0.82812 1.3125 0 0.49219 0.20703 0.86719 0.625 1.125 0.42578 0.26172 1.1875 0.44922 2.2812 0.5625l1.0781 0.15625c3.0938 0.39844 5.1758 1.0469 6.25 1.9531 1.0703 0.89844 1.6094 2.3125 1.6094 4.25 0 2.0117-0.74609 3.5273-2.2344 4.5469-1.4922 1.0117-3.7148 1.5156-6.6719 1.5156-1.25 0-2.543-0.10156-3.875-0.29688-1.3359-0.1875-2.7109-0.47656-4.125-0.875v-4.6094c1.207 0.58594 2.4453 1.0273 3.7188 1.3281 1.2695 0.29297 2.5547 0.4375 3.8594 0.4375 1.1875 0 2.0781-0.16016 2.6719-0.48438 0.60156-0.33203 0.90625-0.82031 0.90625-1.4688 0-0.53906-0.21094-0.94141-0.625-1.2031-0.40625-0.26953-1.2266-0.47656-2.4531-0.625l-1.0625-0.14062c-2.6992-0.33203-4.5898-0.95312-5.6719-1.8594-1.0859-0.91406-1.625-2.3047-1.625-4.1719 0-2.0078 0.6875-3.5 2.0625-4.4688s3.4844-1.4531 6.3281-1.4531c1.1133 0 2.2852 0.085938 3.5156 0.25 1.2266 0.16797 2.5664 0.43359 4.0156 0.79688z"/>
  </symbol>
  <symbol id="f" overflow="visible">
   <path d="m18.219-18.359v4.9375c-0.82422-0.5625-1.6523-0.97656-2.4844-1.25-0.82422-0.26953-1.6797-0.40625-2.5625-0.40625-1.6992 0-3.0234 0.49609-3.9688 1.4844-0.9375 0.99219-1.4062 2.3711-1.4062 4.1406 0 1.7734 0.46875 3.1523 1.4062 4.1406 0.94531 0.98047 2.2695 1.4688 3.9688 1.4688 0.94531 0 1.8438-0.14062 2.6875-0.42188 0.85156-0.28125 1.6406-0.69531 2.3594-1.25v4.9531c-0.94922 0.35547-1.9141 0.61328-2.8906 0.78125-0.96875 0.17578-1.9453 0.26562-2.9219 0.26562-3.418 0-6.0938-0.875-8.0312-2.625-1.9297-1.75-2.8906-4.1875-2.8906-7.3125s0.96094-5.5625 2.8906-7.3125c1.9375-1.7578 4.6133-2.6406 8.0312-2.6406 0.98828 0 1.9609 0.089844 2.9219 0.26562 0.96875 0.16797 1.9297 0.42969 2.8906 0.78125z"/>
  </symbol>
  <symbol id="r" overflow="visible">
   <path d="m15.375-26.328v3.9688h-3.3438c-0.85547 0-1.4531 0.15625-1.7969 0.46875-0.33594 0.3125-0.5 0.85547-0.5 1.625v1.3125h5.1719v4.3281h-5.1719v14.625h-6.0625v-14.625h-3.0156v-4.3281h3.0156v-1.3125c0-2.0703 0.57031-3.5977 1.7188-4.5781 1.1562-0.98828 2.9414-1.4844 5.3594-1.4844z"/>
  </symbol>
  <symbol id="d" overflow="visible">
   <path d="m11.938-15.078c-1.3438 0-2.3711 0.48438-3.0781 1.4531-0.71094 0.96094-1.0625 2.3516-1.0625 4.1719 0 1.8125 0.35156 3.2031 1.0625 4.1719 0.70703 0.96094 1.7344 1.4375 3.0781 1.4375 1.3125 0 2.3164-0.47656 3.0156-1.4375 0.70703-0.96875 1.0625-2.3594 1.0625-4.1719 0-1.8203-0.35547-3.2109-1.0625-4.1719-0.69922-0.96875-1.7031-1.4531-3.0156-1.4531zm0-4.3281c3.2578 0 5.8008 0.88281 7.625 2.6406 1.832 1.7617 2.75 4.1992 2.75 7.3125 0 3.1172-0.91797 5.5547-2.75 7.3125-1.8242 1.75-4.3672 2.625-7.625 2.625-3.2812 0-5.8438-0.875-7.6875-2.625-1.8438-1.7578-2.7656-4.1953-2.7656-7.3125 0-3.1133 0.92188-5.5508 2.7656-7.3125 1.8438-1.7578 4.4062-2.6406 7.6875-2.6406z"/>
  </symbol>
  <symbol id="q" overflow="visible">
   <path d="m20.469-15.812c0.76953-1.1641 1.6797-2.0547 2.7344-2.6719 1.0625-0.61328 2.2227-0.92188 3.4844-0.92188 2.1758 0 3.832 0.67188 4.9688 2.0156 1.1445 1.3438 1.7188 3.293 1.7188 5.8438v11.547h-6.0938v-9.875c0.007812-0.15625 0.015625-0.3125 0.015625-0.46875 0.007813-0.15625 0.015625-0.37891 0.015625-0.67188 0-1.3438-0.19922-2.3164-0.59375-2.9219-0.39844-0.60156-1.0312-0.90625-1.9062-0.90625-1.1562 0-2.0469 0.47656-2.6719 1.4219-0.625 0.94922-0.94922 2.3203-0.96875 4.1094v9.3125h-6.0938v-9.875c0-2.1016-0.18359-3.457-0.54688-4.0625-0.35547-0.60156-0.99609-0.90625-1.9219-0.90625-1.168 0-2.0703 0.48047-2.7031 1.4375-0.625 0.94922-0.9375 2.3086-0.9375 4.0781v9.3281h-6.0938v-18.953h6.0938v2.7812c0.73828-1.0703 1.5938-1.8789 2.5625-2.4219 0.96875-0.53906 2.0312-0.8125 3.1875-0.8125 1.3125 0 2.4688 0.32031 3.4688 0.95312 1.0078 0.625 1.7695 1.5078 2.2812 2.6406z"/>
  </symbol>
  <symbol id="p" overflow="visible">
   <path d="m21.969-11.547v11.547h-6.0938v-8.7969c0-1.6562-0.039062-2.7891-0.10938-3.4062-0.074219-0.625-0.20312-1.0859-0.39062-1.3906-0.23047-0.39453-0.54688-0.70312-0.95312-0.92188s-0.87109-0.32812-1.3906-0.32812c-1.2617 0-2.2578 0.49219-2.9844 1.4688-0.71875 0.98047-1.0781 2.3281-1.0781 4.0469v9.3281h-6.0625v-26.328h6.0625v10.156c0.91406-1.1016 1.8828-1.9141 2.9062-2.4375 1.0312-0.53125 2.1641-0.79688 3.4062-0.79688 2.1875 0 3.8477 0.67188 4.9844 2.0156 1.1328 1.3438 1.7031 3.293 1.7031 5.8438z"/>
  </symbol>
  <symbol id="o" overflow="visible">
   <path d="m3.1875-25.266h7.2656l9.1875 17.328v-17.328h6.1875v25.266h-7.2812l-9.1875-17.328v17.328h-6.1719z"/>
  </symbol>
  <symbol id="n" overflow="visible">
   <path d="m21.969-11.547v11.547h-6.0938v-8.8281c0-1.6328-0.039062-2.7578-0.10938-3.375-0.074219-0.625-0.20312-1.0859-0.39062-1.3906-0.23047-0.39453-0.54688-0.70312-0.95312-0.92188s-0.87109-0.32812-1.3906-0.32812c-1.2617 0-2.2578 0.49219-2.9844 1.4688-0.71875 0.98047-1.0781 2.3281-1.0781 4.0469v9.3281h-6.0625v-18.953h6.0625v2.7812c0.91406-1.1016 1.8828-1.9141 2.9062-2.4375 1.0312-0.53125 2.1641-0.79688 3.4062-0.79688 2.1875 0 3.8477 0.67188 4.9844 2.0156 1.1328 1.3438 1.7031 3.293 1.7031 5.8438z"/>
  </symbol>
  <symbol id="m" overflow="visible">
   <path d="m3.1875-25.266h10.812c3.207 0 5.6719 0.71484 7.3906 2.1406 1.7266 1.4297 2.5938 3.4609 2.5938 6.0938 0 2.6562-0.86719 4.6992-2.5938 6.125-1.7188 1.4297-4.1836 2.1406-7.3906 2.1406h-4.2969v8.7656h-6.5156zm6.5156 4.7188v7.0625h3.5938c1.2695 0 2.25-0.30469 2.9375-0.92188 0.6875-0.61328 1.0312-1.4883 1.0312-2.625 0-1.125-0.34375-1.9883-1.0312-2.5938-0.6875-0.61328-1.668-0.92188-2.9375-0.92188z"/>
  </symbol>
  <symbol id="l" overflow="visible">
   <path d="m2.9062-18.953h6.0625v18.609c0 2.5391-0.60938 4.4766-1.8281 5.8125-1.2188 1.3438-2.9844 2.0156-5.2969 2.0156h-3v-3.9844h1.0625c1.1445 0 1.9297-0.26172 2.3594-0.78125 0.42578-0.51172 0.64062-1.5312 0.64062-3.0625zm0-7.375h6.0625v4.9375h-6.0625z"/>
  </symbol>
 </defs>
 <g>
  <path d="m59.613 221.25c12.152-12.484 25.961-23.355 41.066-32.262 8.0273-4.7344 12.793-13.574 12.547-22.871-0.039062-1.4062-0.058593-2.8164-0.058593-4.2305 0-86.445 70.258-156.52 156.92-156.52 86.668 0 156.92 57.031 156.92 143.48 0 6.6953 6.7969 11.695 13.18 9.6172 19.176-6.2422 39.656-9.6172 60.922-9.6172 108.33 0 196.15 100.64 196.15 208.69 0 108.05-87.816 195.65-196.15 195.65h-300.77c-108.33 0-196.15-87.598-196.15-195.65 0-46.695 16.402-89.57 43.77-123.21 1.5859-2.4961 3.4492-4.8711 5.5938-7.0742 1.9961-2.0508 4.0156-4.0547 6.0547-6.0039zm210.48-128.93c24.434 0 42.43 7.9922 53.191 17.488 9.8633 8.707 16.551 20.938 16.551 39.035 0 64.746 63.656 113.04 127.41 92.281 10.551-3.4375 21.902-5.3281 33.867-5.3281 53.113 0 108.97 54.336 108.97 121.74 0 60.027-48.789 108.69-108.97 108.69h-300.77c-60.184 0-108.97-48.664-108.97-108.69 0-28.789 11.195-55.02 29.637-74.535 26.383-24.793 53.121-31.727 73.797-29.742 22.191 2.1328 41.234 14.664 51.805 35.09 11.039 21.336 37.332 29.707 58.727 18.695 21.391-11.016 29.781-37.238 18.742-58.578-24.305-46.965-69.551-76.824-120.92-81.758-0.91797-0.089844-1.832-0.16797-2.75-0.24219-0.003906-0.88281-0.015624-1.7695-0.039062-2.6523-0.019531-0.64062-0.027344-1.2812-0.027344-1.9258 0-38.422 31.227-69.566 69.742-69.566z" fill-rule="evenodd"/>
  <use y="661.882812" xlink:href="#u"/>
  <use x="25.433594" y="661.882812" xlink:href="#c"/>
  <use x="42.523438" y="661.882812" xlink:href="#a"/>
  <use x="66.023438" y="661.882812" xlink:href="#e"/>
  <use x="89.410156" y="661.882812" xlink:href="#b"/>
  <use x="105.972656" y="661.882812" xlink:href="#a"/>
  <use x="129.476562" y="661.882812" xlink:href="#k"/>
  <use x="166.347656" y="661.882812" xlink:href="#j"/>
  <use x="191.152344" y="661.882812" xlink:href="#i"/>
  <use x="225.804688" y="661.882812" xlink:href="#h"/>
  <use x="252.625" y="661.882812" xlink:href="#t"/>
  <use x="277.429688" y="661.882812" xlink:href="#g"/>
  <use x="302.101563" y="661.882812" xlink:href="#e"/>
  <use x="325.484375" y="661.882812" xlink:href="#s"/>
  <use x="346.113281" y="661.882812" xlink:href="#a"/>
  <use x="369.613281" y="661.882812" xlink:href="#f"/>
  <use y="696.535156" xlink:href="#r"/>
  <use x="15.078125" y="696.535156" xlink:href="#c"/>
  <use x="32.167969" y="696.535156" xlink:href="#d"/>
  <use x="55.972656" y="696.535156" xlink:href="#q"/>
  <use x="104.148438" y="696.535156" xlink:href="#b"/>
  <use x="120.710938" y="696.535156" xlink:href="#p"/>
  <use x="145.382812" y="696.535156" xlink:href="#a"/>
  <use x="180.949219" y="696.535156" xlink:href="#o"/>
  <use x="209.953125" y="696.535156" xlink:href="#d"/>
  <use x="233.757813" y="696.535156" xlink:href="#g"/>
  <use x="258.429688" y="696.535156" xlink:href="#n"/>
  <use x="295.164062" y="696.535156" xlink:href="#m"/>
  <use x="320.5625" y="696.535156" xlink:href="#c"/>
  <use x="337.652344" y="696.535156" xlink:href="#d"/>
  <use x="361.457031" y="696.535156" xlink:href="#l"/>
  <use x="373.335938" y="696.535156" xlink:href="#a"/>
  <use x="396.839844" y="696.535156" xlink:href="#f"/>
  <use x="417.382812" y="696.535156" xlink:href="#b"/>
 </g>
</svg>
